<svg width="17" height="10" viewBox="0 0 17 10" fill="none" xmlns="http://www.w3.org/2000/svg">
<path d="M14.6309 6.35849C15.1948 6.93079 15.79 7.4692 16.2957 8.0992C16.5192 8.37917 16.7307 8.66804 16.8925 8.99295C17.1218 9.4548 16.9141 9.96305 16.5157 9.99062L14.0391 9.98945C13.4003 10.0445 12.8908 9.77726 12.4623 9.32328C12.1194 8.96023 11.8019 8.57386 11.4722 8.19856C11.337 8.04519 11.1955 7.90085 11.0265 7.78675C10.6885 7.55865 10.395 7.62847 10.2018 7.995C10.005 8.36781 9.96034 8.78059 9.94102 9.19606C9.91449 9.80225 9.73821 9.96163 9.15241 9.98938C7.90049 10.0507 6.71235 9.85388 5.60858 9.19741C4.63547 8.61869 3.8809 7.80166 3.22408 6.87674C1.94533 5.07574 0.966003 3.09669 0.0858568 1.06221C-0.112266 0.603842 0.0326323 0.357798 0.51919 0.349066C1.32712 0.332741 2.13495 0.333915 2.94384 0.347892C3.27222 0.352897 3.4896 0.548656 3.6164 0.871112C4.05352 1.98834 4.58839 3.05127 5.25975 4.03652C5.43855 4.29882 5.62087 4.56115 5.88045 4.74576C6.16766 4.95018 6.38633 4.88244 6.52144 4.54987C6.60717 4.33899 6.64472 4.11186 6.66404 3.88604C6.72806 3.10905 6.73649 2.33336 6.62423 1.5591C6.5553 1.07588 6.29346 0.763051 5.82958 0.671626C5.59288 0.624999 5.62811 0.533435 5.74272 0.393001C5.94178 0.150788 6.12901 0 6.50224 0H9.3012C9.74183 0.0903899 9.83968 0.296157 9.90001 0.757011L9.9024 3.98872C9.89759 4.16712 9.98813 4.69658 10.2973 4.81465C10.5447 4.89873 10.7078 4.69296 10.8563 4.52988C11.5264 3.79058 12.0047 2.91684 12.432 2.01212C12.6216 1.61428 12.7847 1.20116 12.9427 0.788349C13.0598 0.482045 13.2435 0.331326 13.5754 0.337987L16.2693 0.340472C16.3491 0.340472 16.43 0.34168 16.5073 0.355451C16.9612 0.435867 17.0856 0.638838 16.9454 1.09959C16.7245 1.82247 16.2947 2.42489 15.8745 3.03008C15.4252 3.6762 14.9447 4.30023 14.4993 4.95018C14.0899 5.54381 14.1224 5.84297 14.6309 6.35849Z" fill="#436EAB"/>
</svg>
