<svg width="44" height="31" viewBox="0 0 44 31" fill="none" xmlns="http://www.w3.org/2000/svg">
<path d="M41.5048 3.71748C40.3484 1.66881 39.0933 1.29198 36.5379 1.14868C33.9852 0.976191 27.5661 0.904541 22.005 0.904541C16.4333 0.904541 10.0115 0.976192 7.46145 1.14603C4.91139 1.29198 3.65368 1.66616 2.48657 3.71748C1.29548 5.7635 0.682617 9.28764 0.682617 15.492C0.682617 15.4973 0.682617 15.5 0.682617 15.5C0.682617 15.5053 0.682617 15.508 0.682617 15.508V15.5133C0.682617 21.6911 1.29548 25.2418 2.48657 27.2666C3.65368 29.3153 4.90873 29.6868 7.45878 29.8593C10.0115 30.0079 16.4333 30.0954 22.005 30.0954C27.5661 30.0954 33.9852 30.0079 36.5406 29.8619C39.096 29.6894 40.351 29.3179 41.5075 27.2692C42.7092 25.2445 43.3168 21.6938 43.3168 15.5159C43.3168 15.5159 43.3168 15.508 43.3168 15.5027C43.3168 15.5027 43.3168 15.4973 43.3168 15.4947C43.3168 9.28764 42.7092 5.7635 41.5048 3.71748Z" fill="#F44336"/>
<path d="M16.6709 23.4612V7.53885L29.9941 15.5L16.6709 23.4612Z" fill="#FAFAFA"/>
</svg>
