<svg width="98" height="93" viewBox="0 0 98 93" fill="none" xmlns="http://www.w3.org/2000/svg">
<g filter="url(#filter0_d)">
<path d="M86.7 26.8571H80.2V24.1457C84.603 23.5096 88 19.7136 88 15.125C88 10.0931 83.9167 6 78.9 6C73.8833 6 69.8 10.0933 69.8 15.125C69.8 19.7135 73.197 23.5095 77.6001 24.1457V26.8571H71.1C70.3811 26.8571 69.8 27.4411 69.8 28.1606V33.3749C69.8 34.0944 70.3811 34.6784 71.1 34.6784H77.6001V77.6963C77.6001 78.4158 78.1811 78.9998 78.9 78.9998C79.6189 78.9998 80.2 78.4158 80.2 77.6963V34.6786H86.7C87.4189 34.6786 88 34.0945 88 33.375V28.1608C88 27.4411 87.4189 26.8571 86.7 26.8571ZM72.4 15.125C72.4 11.5311 75.3158 8.60704 78.9 8.60704C82.4841 8.60704 85.4001 11.5309 85.4001 15.125C85.4001 18.719 82.4842 21.6429 78.9 21.6429C75.3158 21.6429 72.4 18.7189 72.4 15.125ZM85.3999 32.0714H72.4V29.4642H85.3999V32.0714Z" fill="#DF2B23"/>
<path d="M26.8998 37.2859H21.6999C20.9809 37.2859 20.3999 37.8699 20.3999 38.5894V46.4108C20.3999 47.1304 20.9809 47.7144 21.6999 47.7144H26.8998C27.6187 47.7144 28.1998 47.1304 28.1998 46.4108V38.5894C28.1999 37.8699 27.6187 37.2859 26.8998 37.2859ZM25.5999 45.1073H22.9998V39.8931H25.5999V45.1073Z" fill="#DF2B23"/>
<path d="M13.8999 68.5715C14.6188 68.5715 15.1998 67.9875 15.1998 67.268V29.4643H65.8999C66.6188 29.4643 67.1999 28.8803 67.1999 28.1608C67.1999 27.4413 66.6188 26.8573 65.8999 26.8573H15.1998V25.5538C15.1998 24.8343 14.6188 24.2502 13.8999 24.2502C13.181 24.2502 12.5999 24.8343 12.5999 25.5538V67.2682C12.5999 67.9875 13.181 68.5715 13.8999 68.5715Z" fill="#DF2B23"/>
<path d="M54.1999 46.4108V38.5894C54.1999 37.8699 53.6188 37.2859 52.8999 37.2859H47.7C46.9811 37.2859 46.4 37.8699 46.4 38.5894V46.4108C46.4 47.1304 46.9811 47.7144 47.7 47.7144H52.8999C53.6188 47.7144 54.1999 47.1304 54.1999 46.4108ZM51.6 45.1073H48.9999V39.8931H51.6V45.1073Z" fill="#DF2B23"/>
<path d="M63.3 71.1784C64.0189 71.1784 64.6 70.5944 64.6 69.8749V55.5355H65.8999C66.6188 55.5355 67.1999 54.9515 67.1999 54.232C67.1999 53.5125 66.6188 52.9285 65.8999 52.9285H50.2999C49.581 52.9285 48.9999 53.5125 48.9999 54.232C48.9999 54.9515 49.581 55.5355 50.2999 55.5355H51.5998V69.8749C51.5998 70.5944 52.1809 71.1784 52.8998 71.1784C53.6187 71.1784 54.1997 70.5944 54.1997 69.8749V55.5355H61.9998V62.0534H60.7C59.981 62.0534 59.4 62.6374 59.4 63.3569C59.4 64.0765 59.981 64.6605 60.7 64.6605H61.9999V69.8749C61.9999 70.5944 62.5811 71.1784 63.3 71.1784Z" fill="#DF2B23"/>
<path d="M67.2 38.5894C67.2 37.8699 66.619 37.2859 65.9001 37.2859H60.7C59.9811 37.2859 59.4 37.8699 59.4 38.5894V46.4108C59.4 47.1304 59.9811 47.7144 60.7 47.7144H65.8999C66.6188 47.7144 67.1999 47.1304 67.1999 46.4108V38.5894H67.2ZM64.6 45.1073H61.9999V39.8931H64.6V45.1073Z" fill="#DF2B23"/>
<path d="M73.6999 37.2859C72.981 37.2859 72.4 37.8699 72.4 38.5894V69.8752C72.4 70.5947 72.981 71.1787 73.6999 71.1787C74.4188 71.1787 74.9999 70.5947 74.9999 69.8752V38.5894C75 37.8699 74.4188 37.2859 73.6999 37.2859Z" fill="#DF2B23"/>
<path d="M41.1999 38.5894C41.1999 37.8699 40.6188 37.2859 39.8999 37.2859H34.7C33.9811 37.2859 33.4 37.8699 33.4 38.5894V46.4108C33.4 47.1304 33.9811 47.7144 34.7 47.7144H39.8999C40.6188 47.7144 41.1999 47.1304 41.1999 46.4108V38.5894ZM38.5998 45.1073H35.9998V39.8931H38.5998V45.1073Z" fill="#DF2B23"/>
<path d="M73.6999 73.7856H32.0999C31.381 73.7856 30.8 74.3697 30.8 75.0892C30.8 75.8087 31.381 76.3927 32.0999 76.3927H72.4V77.6962C72.4 78.4157 72.981 78.9997 73.6999 78.9997C74.4188 78.9997 74.9999 78.4157 74.9999 77.6962V75.089C75 74.3697 74.4188 73.7856 73.6999 73.7856Z" fill="#DF2B23"/>
<path d="M26.8998 52.9285H21.6999C20.9809 52.9285 20.3999 53.5125 20.3999 54.232V62.0534C20.3999 62.7729 20.9809 63.3569 21.6999 63.3569H26.8998C27.6187 63.3569 28.1998 62.7729 28.1998 62.0534V54.232C28.1999 53.5125 27.6187 52.9285 26.8998 52.9285ZM25.5999 60.7499H22.9998V55.5357H25.5999V60.7499Z" fill="#DF2B23"/>
<path d="M39.8999 52.9285H34.7C33.9811 52.9285 33.4 53.5125 33.4 54.232V62.0534C33.4 62.7729 33.9811 63.3569 34.7 63.3569H39.8999C40.6188 63.3569 41.1999 62.7729 41.1999 62.0534V54.232C41.1999 53.5125 40.6188 52.9285 39.8999 52.9285ZM38.5998 60.7499H35.9998V55.5357H38.5998V60.7499Z" fill="#DF2B23"/>
<path d="M79.8191 16.0466L80.2 15.6647V17.7321C80.2 18.4517 80.781 19.0357 81.4999 19.0357C82.2188 19.0357 82.7999 18.4517 82.7999 17.7321V12.5177C82.7999 11.991 82.4839 11.5153 81.9978 11.3132C81.5116 11.1111 80.9525 11.2232 80.5808 11.5961L78.8999 13.2817L77.219 11.5961C76.8472 11.2232 76.2882 11.1125 75.8021 11.3132C75.316 11.5153 75 11.991 75 12.5177V17.732C75 18.4515 75.581 19.0355 76.3 19.0355C77.0189 19.0355 77.5999 18.4515 77.5999 17.732V15.6647L77.9808 16.0466C78.4891 16.5563 79.3107 16.5563 79.8191 16.0466Z" fill="#DF2B23"/>
<path d="M24.2999 71.1785C24.0751 71.1785 23.8514 71.198 23.6317 71.2371C22.7361 69.6168 21.0265 68.5713 19.1 68.5713C17.1734 68.5713 15.4638 69.6168 14.5682 71.2371C14.3485 71.198 14.1249 71.1785 13.9 71.1785C11.7498 71.1785 10 72.9331 10 75.0892C10 77.2453 11.7498 78.9999 13.9 78.9999H24.3001C26.4503 78.9999 28.2001 77.2453 28.2001 75.0892C28.1999 72.9331 26.4501 71.1785 24.2999 71.1785ZM24.2999 76.3929H13.8999C13.1823 76.3929 12.5999 75.8077 12.5999 75.0894C12.5999 74.3711 13.1823 73.7858 13.8999 73.7858C14.1482 73.7858 14.386 73.8575 14.6044 73.9983C14.9594 74.2278 15.4053 74.2695 15.7979 74.1105C16.1905 73.9514 16.479 73.6099 16.5767 73.1966C16.8497 72.0091 17.8872 71.1786 19.1 71.1786C20.3128 71.1786 21.349 72.0091 21.6232 73.1966C21.7207 73.6099 22.0093 73.9514 22.402 74.1105C22.796 74.2695 23.2392 74.2278 23.5955 73.9983C24.4418 73.4508 25.6 74.1208 25.6 75.0894C25.5999 75.8075 25.0175 76.3929 24.2999 76.3929Z" fill="#DF2B23"/>
</g>
<defs>
<filter id="filter0_d" x="0" y="0" width="98" height="92.9999" filterUnits="userSpaceOnUse" color-interpolation-filters="sRGB">
<feFlood flood-opacity="0" result="BackgroundImageFix"/>
<feColorMatrix in="SourceAlpha" type="matrix" values="0 0 0 0 0 0 0 0 0 0 0 0 0 0 0 0 0 0 127 0"/>
<feOffset dy="4"/>
<feGaussianBlur stdDeviation="5"/>
<feColorMatrix type="matrix" values="0 0 0 0 0.87451 0 0 0 0 0.168627 0 0 0 0 0.137255 0 0 0 0.2 0"/>
<feBlend mode="normal" in2="BackgroundImageFix" result="effect1_dropShadow"/>
<feBlend mode="normal" in="SourceGraphic" in2="effect1_dropShadow" result="shape"/>
</filter>
</defs>
</svg>
