<svg width="106" height="80" viewBox="0 0 106 80" fill="none" xmlns="http://www.w3.org/2000/svg">
<g filter="url(#filter0_d)">
<path d="M64.4938 6C63.7022 6 63.0604 6.63964 63.0604 7.42857V10.2857C63.0604 11.0746 63.7022 11.7143 64.4938 11.7143C65.2855 11.7143 65.9273 11.0746 65.9273 10.2857V7.42857C65.9273 6.63964 65.2855 6 64.4938 6Z" fill="#DF2B23"/>
<path d="M82.739 13.53C82.1789 12.9718 81.2708 12.9718 80.7106 13.53L78.6837 15.5528C78.1066 16.093 78.0781 16.997 78.6201 17.5721C79.1621 18.1473 80.0692 18.1757 80.6463 17.6355C80.6683 17.6148 80.6898 17.5934 80.7106 17.5714L82.739 15.5514C83.2991 14.9932 83.2991 14.0882 82.739 13.53Z" fill="#DF2B23"/>
<path d="M88.8628 30.2856H85.9958C85.2042 30.2856 84.5624 30.9253 84.5624 31.7142C84.5624 32.5031 85.2042 33.1428 85.9958 33.1428H88.8628C89.6544 33.1428 90.2962 32.5031 90.2962 31.7142C90.2962 30.9253 89.6544 30.2856 88.8628 30.2856Z" fill="#DF2B23"/>
<path d="M50.3025 15.5529L48.2756 13.5315C47.7155 12.9736 46.8077 12.974 46.248 13.5322C45.6882 14.0904 45.6886 14.995 46.2487 15.5529L48.2756 17.5714C48.5442 17.8398 48.9087 17.9909 49.2891 17.9914C50.0807 17.9913 50.7224 17.3516 50.7222 16.5625C50.7222 16.1839 50.5711 15.8207 50.3025 15.5529Z" fill="#DF2B23"/>
<path d="M83.0988 40.2856C82.3083 40.2858 81.5195 40.3581 80.7422 40.5013C80.553 39.9513 80.3353 39.4117 80.09 38.8842C84.1133 30.3153 80.4046 20.1183 71.8065 16.1087C63.2082 12.099 52.9763 15.7951 48.9529 24.3638C48.9044 24.4672 48.8569 24.5711 48.8103 24.6754C46.9862 24.4387 45.1324 24.6054 43.3803 25.164C38.9552 18.6219 30.0462 16.8933 23.4817 21.3033C19.5309 23.9574 17.1615 28.3942 17.1594 33.1426C17.1594 33.2854 17.1594 33.4197 17.1594 33.5626C11.8504 35.1463 8.83489 40.7194 10.4241 46.0103C11.6943 50.2394 15.5967 53.1379 20.0263 53.1426H35.8934C35.0652 59.3636 39.4541 65.0758 45.6965 65.9011C46.2154 65.9697 46.7386 66.0028 47.2622 65.9997H83.0988C90.224 65.9997 96 60.2433 96 53.1426C96 46.042 90.2238 40.2856 83.0988 40.2856ZM64.4939 17.4285C72.3813 17.3992 78.7991 23.7478 78.8285 31.6083C78.8337 33.0044 78.6328 34.3935 78.2322 35.7313C74.9911 31.3997 69.8855 28.8508 64.4638 28.857C62.2086 28.8619 59.9768 29.3154 57.8999 30.1913C56.3776 27.9715 54.1937 26.2845 51.6572 25.3685C54.0876 20.5179 59.0535 17.4462 64.4939 17.4285ZM20.0263 50.2856C16.068 50.2542 12.8848 47.0308 12.9163 43.0861C12.9441 39.6122 15.476 36.6619 18.9154 36.0956C19.6776 35.9765 20.2085 35.2776 20.1166 34.5142C20.0596 34.0592 20.0295 33.6013 20.0263 33.1428C20.0224 26.831 25.1535 21.711 31.4869 21.707C35.6613 21.7044 39.5075 23.9626 41.5283 27.6028C41.8843 28.2424 42.6677 28.5106 43.3431 28.2242C47.6286 26.4106 52.6031 27.7708 55.3598 31.5099C51.2069 34.1026 48.3543 38.3313 47.513 43.1427H47.2622C42.593 43.1494 38.393 45.9733 36.6388 50.2856H20.0263ZM86.0353 62.707C85.0834 62.9965 84.0938 63.1435 83.0988 63.1427H47.2622C42.5122 63.1779 38.6329 59.3692 38.5976 54.6354C38.5623 49.9017 42.3841 46.0356 47.1341 46.0004C47.6089 45.9969 48.0834 46.0326 48.5523 46.107C49.3351 46.2249 50.0655 45.6881 50.1839 44.9079C50.1888 44.8763 50.1925 44.8445 50.195 44.8128C50.8435 36.9581 57.7584 31.1147 65.6397 31.761C71.7671 32.2633 76.8889 36.6079 78.3655 42.5556C78.5558 43.3215 79.3329 43.7886 80.1014 43.599C80.1265 43.5928 80.1512 43.586 80.176 43.5785C85.4762 41.966 91.0846 44.941 92.7027 50.2231C94.3207 55.5053 91.3355 61.0945 86.0353 62.707Z" fill="#DF2B23"/>
</g>
<defs>
<filter id="filter0_d" x="0" y="0" width="106" height="79.9999" filterUnits="userSpaceOnUse" color-interpolation-filters="sRGB">
<feFlood flood-opacity="0" result="BackgroundImageFix"/>
<feColorMatrix in="SourceAlpha" type="matrix" values="0 0 0 0 0 0 0 0 0 0 0 0 0 0 0 0 0 0 127 0"/>
<feOffset dy="4"/>
<feGaussianBlur stdDeviation="5"/>
<feColorMatrix type="matrix" values="0 0 0 0 0.87451 0 0 0 0 0.168627 0 0 0 0 0.137255 0 0 0 0.2 0"/>
<feBlend mode="normal" in2="BackgroundImageFix" result="effect1_dropShadow"/>
<feBlend mode="normal" in="SourceGraphic" in2="effect1_dropShadow" result="shape"/>
</filter>
</defs>
</svg>
