<svg width="100" height="100" viewBox="0 0 100 100" fill="none" xmlns="http://www.w3.org/2000/svg">
<g filter="url(#filter0_d)">
<path d="M39.3333 55.3333C39.3333 56.0692 39.9306 56.6666 40.6665 56.6666H46C46.7359 56.6666 47.3333 56.0692 47.3333 55.3333V47.3333C47.3333 46.5973 46.7359 46 46 46H40.6667C39.9308 46 39.3334 46.5973 39.3334 47.3333V55.3333H39.3333ZM42 48.6667H44.6667V54H42V48.6667Z" fill="#DF2B23"/>
<path d="M40.6667 40.6667H46C46.7359 40.6667 47.3333 40.0693 47.3333 39.3334V31.3334C47.3333 30.5975 46.7359 30.0001 46 30.0001H40.6667C39.9308 30.0001 39.3334 30.5975 39.3334 31.3334V39.3334C39.3333 40.0693 39.9306 40.6667 40.6667 40.6667ZM42 32.6667H44.6667V38H42V32.6667Z" fill="#DF2B23"/>
<path d="M30.6867 31.1427L50 19.5547L69.3133 31.1427C69.528 31.272 69.7653 31.3333 69.9986 31.3333C70.4519 31.3333 70.8933 31.1027 71.1427 30.6866C71.5227 30.0545 71.3174 29.2359 70.6867 28.8572L51.3333 17.2453V8.66672H58V11.3334H54C53.2641 11.3334 52.6667 11.9308 52.6667 12.6667C52.6667 13.4027 53.2641 14 54 14H59.3333C60.0692 14 60.6666 13.4027 60.6666 12.6667V7.33328C60.6666 6.59734 60.0692 6 59.3333 6H50C49.2641 6 48.6667 6.59734 48.6667 7.33328V17.2453L29.3135 28.8573C28.6828 29.2359 28.4775 30.0547 28.8575 30.6867C29.2347 31.3173 30.056 31.5227 30.6867 31.1427Z" fill="#DF2B23"/>
<path d="M24.6667 56.6667C25.4027 56.6667 26 56.0693 26 55.3334V47.3334C26 46.5975 25.4027 46.0001 24.6667 46.0001H19.3333C18.5973 46.0001 18 46.5975 18 47.3334V50C18 50.7359 18.5973 51.3332 19.3333 51.3332C20.0692 51.3332 20.6666 50.7359 20.6666 50V48.6667H23.3333V55.3334C23.3333 56.0693 23.9306 56.6667 24.6667 56.6667Z" fill="#DF2B23"/>
<path d="M34 74V35.3333C34 34.5973 33.4027 34 32.6667 34C31.9308 34 31.3334 34.5973 31.3334 35.3333V74C31.3334 74.7359 31.9308 75.3333 32.6667 75.3333C33.4027 75.3333 34 74.7359 34 74Z" fill="#DF2B23"/>
<path d="M27.3333 80.6668H72.6666C73.4025 80.6668 73.9998 80.0694 73.9998 79.3335C73.9998 78.5976 73.4025 78.0002 72.6666 78.0002H60.6666V64.6669H61.9998C62.7358 64.6669 63.3331 64.0696 63.3331 63.3336C63.3331 62.5977 62.7358 62.0004 61.9998 62.0004H38C37.2641 62.0004 36.6667 62.5977 36.6667 63.3336C36.6667 64.0696 37.2641 64.6669 38 64.6669H39.3333V78H27.3333C26.5973 78 26 78.5974 26 79.3333C26 80.0693 26.5973 80.6668 27.3333 80.6668ZM51.3333 72.6668C52.0692 72.6668 52.6666 72.0694 52.6666 71.3335C52.6666 70.5976 52.0692 70.0002 51.3333 70.0002V64.6669H58V78H51.3333V72.6668ZM42 64.6668H48.6667V70.0001C47.9308 70.0001 47.3334 70.5974 47.3334 71.3333C47.3334 72.0693 47.9308 72.6666 48.6667 72.6666V78H42V64.6668Z" fill="#DF2B23"/>
<path d="M80.6667 63.3333H75.3335C74.5975 63.3333 74.0002 63.9306 74.0002 64.6665V72.6665C74.0002 73.4025 74.5975 73.9998 75.3335 73.9998H80.6667C81.4027 73.9998 82 73.4025 82 72.6665V64.6665C82 63.9306 81.4027 63.3333 80.6667 63.3333ZM79.3333 71.3332H76.6666V66H79.3333V71.3332Z" fill="#DF2B23"/>
<path d="M80.6667 47.3333H75.3335C74.5975 47.3333 74.0002 47.9306 74.0002 48.6665V56.6665C74.0002 57.4025 74.5975 57.9998 75.3335 57.9998H80.6667C81.4027 57.9998 82 57.4025 82 56.6665V48.6665C82 47.9306 81.4027 47.3333 80.6667 47.3333ZM79.3333 55.3333H76.6666V50H79.3333V55.3333Z" fill="#DF2B23"/>
<path d="M78 83.3333H22C21.2641 83.3333 20.6667 83.9306 20.6667 84.6665C20.6667 85.4025 21.2641 86 22 86H78C78.736 86 79.3333 85.4026 79.3333 84.6667C79.3333 83.9308 78.736 83.3333 78 83.3333Z" fill="#DF2B23"/>
<path d="M88.6667 35.3333C87.9308 35.3333 87.3334 35.9306 87.3334 36.6665V37.9998H72.6667C71.9308 37.9998 71.3334 38.5972 71.3334 39.3331C71.3334 40.069 71.9308 40.6664 72.6667 40.6664H87.3334V84.6664C87.3334 85.4023 87.9308 85.9997 88.6667 85.9997C89.4027 85.9997 90 85.4023 90 84.6664V36.6664C90 35.9306 89.4027 35.3333 88.6667 35.3333Z" fill="#DF2B23"/>
<path d="M52.6667 55.3333C52.6667 56.0692 53.2641 56.6666 54 56.6666H59.3333C60.0693 56.6666 60.6666 56.0692 60.6666 55.3333V47.3333C60.6666 46.5973 60.0693 46 59.3333 46H54C53.2641 46 52.6667 46.5973 52.6667 47.3333V55.3333ZM55.3333 48.6667H58V54H55.3333V48.6667Z" fill="#DF2B23"/>
<path d="M23.3333 71.3333C23.3333 71.16 23.2573 54 16.6666 54C10.0759 54 10 71.16 10 71.3333C10 74.5533 12.2947 77.2453 15.3333 77.8653V84.6667C15.3333 85.4027 15.9306 86 16.6666 86C17.4025 86 17.9998 85.4027 17.9998 84.6667V77.8653C21.0386 77.2453 23.3333 74.5533 23.3333 71.3333ZM16.6667 75.3333C14.4614 75.3333 12.6667 73.5386 12.6667 71.3333C12.6667 64.6906 14.4508 56.6666 16.6667 56.6666C18.8827 56.6666 20.6667 64.6906 20.6667 71.3333C20.6667 73.5386 18.872 75.3333 16.6667 75.3333Z" fill="#DF2B23"/>
<path d="M68.6667 74V34C68.6667 33.2641 68.0694 32.6667 67.3335 32.6667C66.5975 32.6667 66.0002 33.2641 66.0002 34V74C66.0002 74.736 66.5975 75.3333 67.3335 75.3333C68.0694 75.3333 68.6667 74.736 68.6667 74Z" fill="#DF2B23"/>
<path d="M54 40.6667H59.3333C60.0693 40.6667 60.6666 40.0693 60.6666 39.3334V31.3334C60.6666 30.5975 60.0693 30.0001 59.3333 30.0001H54C53.2641 30.0001 52.6667 30.5975 52.6667 31.3334V39.3334C52.6667 40.0693 53.2641 40.6667 54 40.6667ZM55.3333 32.6667H58V38H55.3333V32.6667Z" fill="#DF2B23"/>
<path d="M11.3333 52.6667C12.0692 52.6667 12.6666 52.0694 12.6666 51.3335V40.6667H27.3333C28.0692 40.6667 28.6666 40.0694 28.6666 39.3335C28.6666 38.5975 28.0692 38.0002 27.3333 38.0002H12.6667V36.6669C12.6667 35.931 12.0694 35.3336 11.3334 35.3336C10.5975 35.3336 10 35.9306 10 36.6667V51.3335C10 52.0694 10.5973 52.6667 11.3333 52.6667Z" fill="#DF2B23"/>
</g>
<defs>
<filter id="filter0_d" x="0" y="0" width="100" height="100" filterUnits="userSpaceOnUse" color-interpolation-filters="sRGB">
<feFlood flood-opacity="0" result="BackgroundImageFix"/>
<feColorMatrix in="SourceAlpha" type="matrix" values="0 0 0 0 0 0 0 0 0 0 0 0 0 0 0 0 0 0 127 0"/>
<feOffset dy="4"/>
<feGaussianBlur stdDeviation="5"/>
<feColorMatrix type="matrix" values="0 0 0 0 0.87451 0 0 0 0 0.168627 0 0 0 0 0.137255 0 0 0 0.2 0"/>
<feBlend mode="normal" in2="BackgroundImageFix" result="effect1_dropShadow"/>
<feBlend mode="normal" in="SourceGraphic" in2="effect1_dropShadow" result="shape"/>
</filter>
</defs>
</svg>
