<svg width="92" height="92" viewBox="0 0 92 92" fill="none" xmlns="http://www.w3.org/2000/svg">
<g filter="url(#filter0_d)">
<path d="M81.9955 61.7965L81.9786 39.9018C81.9726 37.0851 79.6898 34.8038 76.8733 34.8001C74.3947 34.7969 72.2731 36.5771 71.8455 39.0188L69.0146 55.0641C67.8693 54.9122 66.7091 55.1985 65.766 55.8657L56.1085 62.6596C55.7888 62.884 55.5986 63.2503 55.5989 63.6411V76.8001C55.5989 77.4628 56.1361 78.0001 56.7987 78.0001H68.7973C69.4599 78.0001 69.9971 77.4628 69.9971 76.8001V75.282L77.8964 70.2517C80.563 68.2734 82.094 65.1157 81.9955 61.7965ZM76.5827 68.2429L68.1526 73.6107C67.8068 73.8312 67.5974 74.2129 67.5973 74.6232V75.6H57.9984V64.2639L67.1461 57.8286C68.1423 57.1286 69.5173 57.3687 70.2171 58.365C70.9015 59.3392 70.689 60.681 69.7368 61.3957L63.2776 66.2403L64.7178 68.1598L71.1769 63.3153C73.2109 61.7892 73.6228 58.903 72.0969 56.8688C71.9662 56.6946 71.8234 56.5299 71.6694 56.376C71.5463 56.253 71.4167 56.1369 71.281 56.028L74.2086 39.4361C74.4681 37.9644 75.8715 36.9816 77.3429 37.2413C78.6353 37.4693 79.5778 38.5919 79.5786 39.9042L79.5957 61.7977C79.6976 64.308 78.5741 66.7114 76.5827 68.2429Z" fill="#DF2B23"/>
<path d="M35.8913 62.6595L26.2338 55.8656C25.2907 55.1984 24.1303 54.9122 22.9852 55.064L20.1543 39.0187C19.6645 36.2416 17.0164 34.3874 14.2396 34.8773C11.8012 35.3075 10.023 37.4254 10.0211 39.9017L10.0043 61.7976C9.90756 65.1264 11.4485 68.2913 14.1282 70.2679L22.0028 75.2818V76.8C22.0028 77.4627 22.5401 78 23.2027 78H35.2012C35.8638 78 36.4011 77.4627 36.4011 76.8V63.641C36.4012 63.2502 36.2111 62.8839 35.8913 62.6595ZM34.0014 75.5998H24.4025V74.623C24.4024 74.2128 24.193 73.831 23.8472 73.6105L15.4417 68.2592C13.4372 66.7293 12.3037 64.3185 12.404 61.7987L12.421 39.904C12.422 38.4095 13.6342 37.1989 15.1283 37.1999C16.4406 37.2008 17.5631 38.1434 17.7909 39.4358L20.7184 56.0277C20.5827 56.1366 20.4531 56.2527 20.3299 56.3757C18.532 58.1739 18.532 61.0893 20.3299 62.8875C20.4838 63.0414 20.6485 63.1844 20.8226 63.315L27.2817 68.1596L28.7219 66.24L22.2628 61.3955C21.2891 60.6645 21.0923 59.2826 21.8232 58.3088C22.5378 57.3566 23.8794 57.1439 24.8535 57.8283L34.0012 64.2636V75.5998H34.0014Z" fill="#DF2B23"/>
<path d="M45.9999 6H45.9243L45.9999 8.4C47.4684 8.39985 48.9334 8.5401 50.3752 8.81894L50.8334 6.4635C49.2406 6.15495 47.6221 5.9997 45.9999 6Z" fill="#DF2B23"/>
<path d="M41.01 6.49463C39.3922 6.81968 37.8105 7.30403 36.288 7.94078L37.2137 10.1545C38.5901 9.57952 40.0198 9.14182 41.4823 8.84782L41.01 6.49463Z" fill="#DF2B23"/>
<path d="M62.1282 47.3132C61.0728 48.3695 59.9169 49.3204 58.6768 50.1521L60.0138 52.1455C61.3832 51.2266 62.66 50.1764 63.826 49.0102L62.1282 47.3132Z" fill="#DF2B23"/>
<path d="M55.5641 7.87988L54.6525 10.0994C56.0326 10.667 57.3538 11.3687 58.5972 12.1942L59.9248 10.195C58.5505 9.28208 57.09 8.50673 55.5641 7.87988Z" fill="#DF2B23"/>
<path d="M68.7971 31.2C68.7973 32.6928 68.6522 34.182 68.3641 35.6467L70.7181 36.112C71.0365 34.4941 71.1968 32.8491 71.1967 31.2001V31.0981L68.7971 31.2Z" fill="#DF2B23"/>
<path d="M63.751 13.3154L62.0603 15.0182C63.1199 16.0706 64.0744 17.2237 64.9105 18.4612L66.899 17.1182C65.9757 15.7514 64.9215 14.4778 63.751 13.3154Z" fill="#DF2B23"/>
<path d="M54.7422 52.2639C53.3644 52.836 51.9336 53.2707 50.4706 53.5617L50.938 55.916C52.5565 55.5939 54.1391 55.1129 55.6631 54.4799L54.7422 52.2639Z" fill="#DF2B23"/>
<path d="M69.2471 21.4622L67.0336 22.3904C67.6103 23.7666 68.0499 25.1964 68.346 26.6589L70.6977 26.1831C70.3703 24.5657 69.8845 22.9844 69.2471 21.4622Z" fill="#DF2B23"/>
<path d="M67.0699 39.9209C66.4979 41.2997 65.7921 42.6191 64.9625 43.8602L66.958 45.1938C67.8746 43.8219 68.6546 42.3636 69.2868 40.8398L67.0699 39.9209Z" fill="#DF2B23"/>
<path d="M45.9999 53.9999C44.5152 54.0002 43.0342 53.8566 41.5772 53.571L41.1144 55.9265C42.7238 56.2415 44.36 56.4 45.9999 56.3999H46.0251L45.9999 53.9999Z" fill="#DF2B23"/>
<path d="M27.0629 43.8982L25.071 45.2377C25.9916 46.6063 27.0434 47.882 28.2113 49.0469L29.9057 47.3477C28.8482 46.2929 27.8961 45.1378 27.0629 43.8982Z" fill="#DF2B23"/>
<path d="M31.9414 10.2832C30.5734 11.2051 29.2988 12.2582 28.1356 13.4279L29.837 15.1201C30.8899 14.0615 32.0437 13.1084 33.2819 12.2741L31.9414 10.2832Z" fill="#DF2B23"/>
<path d="M21.2711 26.3403C20.9596 27.9414 20.8028 29.5689 20.803 31.2V31.2504L23.2027 31.2C23.2024 29.723 23.3443 28.2494 23.6262 26.7996L21.2711 26.3403Z" fill="#DF2B23"/>
<path d="M25.0118 17.2512C24.0976 18.6246 23.3206 20.0846 22.6917 21.6101L24.911 22.5242C25.4793 21.1442 26.1822 19.8236 27.0095 18.5814L25.0118 17.2512Z" fill="#DF2B23"/>
<path d="M23.645 35.6934L21.2921 36.1639C21.6156 37.7823 22.0982 39.3648 22.7328 40.8883L24.9474 39.9649C24.3739 38.5873 23.9377 37.1566 23.645 35.6934Z" fill="#DF2B23"/>
<path d="M33.3627 50.1802L32.0305 52.1759C33.4029 53.0915 34.8618 53.8703 36.3864 54.5009L37.3026 52.2826C35.9237 51.7126 34.604 51.0085 33.3627 50.1802Z" fill="#DF2B23"/>
<path d="M63.9977 26.4C63.9977 22.7162 61.7093 18.7658 57.9334 18.0984C57.5686 14.0042 54.1643 10.8506 50.0547 10.8001C48.6267 10.7989 47.2253 11.1854 45.9999 11.9186C44.7746 11.1854 43.3731 10.7989 41.9452 10.8001C37.704 10.8613 34.1986 14.1255 33.8356 18.3522C30.3294 19.4547 27.9594 22.7244 28.0021 26.4C28.0008 28.1111 28.5128 29.7831 29.4721 31.2C28.5128 32.6169 28.0008 34.289 28.0021 36C28.0021 39.6838 30.2905 43.6342 34.0665 44.3016C34.4312 48.3958 37.8355 51.5494 41.9452 51.6C43.3731 51.6012 44.7746 51.2146 45.9999 50.4814C47.2253 51.2146 48.6267 51.6012 50.0547 51.6C54.2959 51.5388 57.8012 48.2745 58.1642 44.0478C61.6705 42.9453 64.0405 39.6756 63.9977 36C63.9991 34.289 63.487 32.6169 62.5278 31.2C63.4869 29.7833 63.9991 28.1111 63.9977 26.4ZM44.8001 21.6C44.8001 22.9256 43.7257 24 42.4004 24C41.075 24 40.0006 22.9256 40.0006 21.6H37.6009C37.6039 24.2498 39.7509 26.397 42.4004 26.4C43.2455 26.3952 44.0739 26.1647 44.8001 25.7322V48.3831C43.9413 48.912 42.9536 49.1944 41.9452 49.2C39.1311 49.1374 36.7988 46.9996 36.4917 44.2014C39.0396 43.4955 40.5328 40.8576 39.8268 38.3094C39.2512 36.2313 37.3574 34.7945 35.2012 34.8V37.2C36.5266 37.2 37.6009 38.2744 37.6009 39.6C37.6009 40.9255 36.5266 42 35.2012 42C32.3304 42 30.4018 38.8974 30.4018 36C30.3993 34.5264 30.9274 33.1013 31.8893 31.9851C32.28 31.5347 32.28 30.8652 31.8893 30.4148C30.9274 29.2986 30.3993 27.8735 30.4018 26.3999C30.3486 23.5224 32.3775 21.0257 35.2047 20.4896C35.7928 20.3399 36.2018 19.8068 36.1943 19.1999C36.1308 15.9567 38.7027 13.2735 41.9452 13.1999C42.9536 13.2053 43.9413 13.4879 44.8001 14.0168V21.6ZM60.1105 31.9853C61.0725 33.1014 61.6006 34.5266 61.598 36.0001C61.6513 38.8776 59.6223 41.3743 56.7952 41.9104C56.2071 42.0601 55.7981 42.5932 55.8056 43.2001C55.869 46.4433 53.2971 49.1265 50.0547 49.2001C49.0462 49.1947 48.0586 48.9121 47.1998 48.3832V34.8001C47.1998 33.4746 48.2741 32.4002 49.5995 32.4002C50.9249 32.4002 51.9992 33.4746 51.9992 34.8001H54.3989C54.3959 32.1504 52.2489 30.0032 49.5995 30.0002C48.7543 30.005 47.926 30.2355 47.1998 30.668V14.0169C48.0586 13.488 49.0462 13.2056 50.0547 13.2C52.8686 13.2626 55.201 15.4004 55.5082 18.1986C52.9603 18.9045 51.467 21.5424 52.173 24.0906C52.7486 26.1687 54.6425 27.6056 56.7986 27.6V25.2C55.4732 25.2 54.3989 24.1256 54.3989 22.8C54.3989 21.4745 55.4732 20.4 56.7986 20.4C59.6694 20.4 61.598 23.5026 61.598 26.4C61.6006 27.8736 61.0725 29.2988 60.1105 30.4149C59.7196 30.8654 59.7196 31.5347 60.1105 31.9853Z" fill="#DF2B23"/>
</g>
<defs>
<filter id="filter0_d" x="0" y="0" width="92" height="92.0001" filterUnits="userSpaceOnUse" color-interpolation-filters="sRGB">
<feFlood flood-opacity="0" result="BackgroundImageFix"/>
<feColorMatrix in="SourceAlpha" type="matrix" values="0 0 0 0 0 0 0 0 0 0 0 0 0 0 0 0 0 0 127 0"/>
<feOffset dy="4"/>
<feGaussianBlur stdDeviation="5"/>
<feColorMatrix type="matrix" values="0 0 0 0 0.87451 0 0 0 0 0.168627 0 0 0 0 0.137255 0 0 0 0.2 0"/>
<feBlend mode="normal" in2="BackgroundImageFix" result="effect1_dropShadow"/>
<feBlend mode="normal" in="SourceGraphic" in2="effect1_dropShadow" result="shape"/>
</filter>
</defs>
</svg>
