<svg width="100" height="100" viewBox="0 0 100 100" fill="none" xmlns="http://www.w3.org/2000/svg">
<g filter="url(#filter0_d)">
<path d="M67.3333 32.6667H64.6666C63.9306 32.6667 63.3333 33.2641 63.3333 34C63.3333 34.736 63.9306 35.3333 64.6666 35.3333H67.3333C68.0692 35.3333 68.6666 34.736 68.6666 34C68.6666 33.2641 68.0694 32.6667 67.3333 32.6667Z" fill="#DF2B23"/>
<path d="M67.3333 38H64.6666C63.9306 38 63.3333 38.5973 63.3333 39.3333C63.3333 40.0692 63.9306 40.6666 64.6666 40.6666H67.3333C68.0692 40.6666 68.6666 40.0692 68.6666 39.3333C68.6667 38.5973 68.0694 38 67.3333 38Z" fill="#DF2B23"/>
<path d="M67.3333 27.3333H64.6666C63.9306 27.3333 63.3333 27.9306 63.3333 28.6665C63.3333 29.4025 63.9306 29.9998 64.6666 29.9998H67.3333C68.0692 29.9998 68.6666 29.4025 68.6666 28.6665C68.6667 27.9306 68.0694 27.3333 67.3333 27.3333Z" fill="#DF2B23"/>
<path d="M67.3333 70H64.6666C63.9306 70 63.3333 70.5973 63.3333 71.3333C63.3333 72.0692 63.9306 72.6666 64.6666 72.6666H67.3333C68.0692 72.6666 68.6666 72.0692 68.6666 71.3333C68.6666 70.5973 68.0694 70 67.3333 70Z" fill="#DF2B23"/>
<path d="M38 27.3333H30C29.2641 27.3333 28.6667 27.9306 28.6667 28.6665V47.3333C28.6667 48.0692 29.2641 48.6665 30 48.6665H38C38.7359 48.6665 39.3333 48.0692 39.3333 47.3333V28.6667C39.3333 27.9306 38.7359 27.3333 38 27.3333ZM36.6667 46H31.3334V30H36.6667V46Z" fill="#DF2B23"/>
<path d="M38 70H30C29.2641 70 28.6667 70.5973 28.6667 71.3333C28.6667 72.0692 29.2641 72.6666 30 72.6666H38C38.7359 72.6666 39.3333 72.0692 39.3333 71.3333C39.3333 70.5973 38.7359 70 38 70Z" fill="#DF2B23"/>
<path d="M38 75.3333H30C29.2641 75.3333 28.6667 75.9306 28.6667 76.6665C28.6667 77.4025 29.2641 77.9998 30 77.9998H38C38.7359 77.9998 39.3333 77.4025 39.3333 76.6665C39.3333 75.9306 38.7359 75.3333 38 75.3333Z" fill="#DF2B23"/>
<path d="M67.3333 75.3333H64.6666C63.9306 75.3333 63.3333 75.9306 63.3333 76.6665C63.3333 77.4025 63.9306 77.9998 64.6666 77.9998H67.3333C68.0692 77.9998 68.6666 77.4025 68.6666 76.6665C68.6667 75.9306 68.0694 75.3333 67.3333 75.3333Z" fill="#DF2B23"/>
<path d="M83.3333 75.3333H78C77.2641 75.3333 76.6667 75.9306 76.6667 76.6665C76.6667 77.4025 77.2641 77.9998 78 77.9998H83.3333C84.0692 77.9998 84.6666 77.4025 84.6666 76.6665C84.6667 75.9306 84.0694 75.3333 83.3333 75.3333Z" fill="#DF2B23"/>
<path d="M55.3333 28.6668C55.3333 27.9308 54.7359 27.3335 54 27.3335H48.6667C47.9308 27.3335 47.3334 27.9308 47.3334 28.6668V47.3335C47.3334 48.0694 47.9308 48.6668 48.6667 48.6668H54C54.7359 48.6668 55.3333 48.0694 55.3333 47.3335V28.6668ZM52.6667 46.0001H50V30.0001H52.6667V46.0001Z" fill="#DF2B23"/>
<path d="M83.3333 70H78C77.2641 70 76.6667 70.5973 76.6667 71.3333C76.6667 72.0692 77.2641 72.6666 78 72.6666H83.3333C84.0692 72.6666 84.6666 72.0692 84.6666 71.3333C84.6666 70.5973 84.0694 70 83.3333 70Z" fill="#DF2B23"/>
<path d="M54 75.3333H48.6667C47.9308 75.3333 47.3334 75.9306 47.3334 76.6665C47.3334 77.4025 47.9308 77.9998 48.6667 77.9998H54C54.7359 77.9998 55.3333 77.4025 55.3333 76.6665C55.3333 75.9306 54.7359 75.3333 54 75.3333Z" fill="#DF2B23"/>
<path d="M78 54C78.7359 54 79.3333 53.4026 79.3333 52.6667V39.3334C79.3333 38.5975 78.7359 38.0001 78 38.0001C77.2641 38.0001 76.6667 38.5975 76.6667 39.3334V52.6667C76.6667 53.4026 77.2641 54 78 54Z" fill="#DF2B23"/>
<path d="M84.6667 39.3333C84.6667 38.5973 84.0694 38 83.3334 38C82.5975 38 82.0002 38.5973 82.0002 39.3333V52.6666C82.0002 53.4025 82.5975 53.9998 83.3334 53.9998C84.0694 53.9998 84.6667 53.4025 84.6667 52.6666V39.3333Z" fill="#DF2B23"/>
<path d="M86 16.6667H78C77.2641 16.6667 76.6667 17.2641 76.6667 18C76.6667 18.7359 77.2641 19.3333 78 19.3333H86C86.7347 19.3333 87.3333 19.9319 87.3333 20.6666V82C87.3333 82.7347 86.7347 83.3333 86 83.3333H74V27.3333H82C82.7359 27.3333 83.3333 26.7359 83.3333 26C83.3333 25.2641 82.7359 24.6667 82 24.6667H74V12.6667C74 10.4241 72.2427 8.66672 70 8.66672H62C59.7947 8.66672 58 10.4614 58 12.6667V83.3334H44.6667V14H54C54.7359 14 55.3333 13.4027 55.3333 12.6667C55.3333 11.9308 54.7359 11.3334 54 11.3334H44.6667V10C44.6667 7.75734 42.9094 6 40.6667 6H27.3334C25.1281 6 23.3334 7.79469 23.3334 10V22H16.6667C15.9308 22 15.3334 22.5973 15.3334 23.3333C15.3334 24.0692 15.9308 24.6666 16.6667 24.6666H23.3334V83.3333H14C13.2653 83.3333 12.6667 82.7347 12.6667 82V18C12.6667 17.2653 13.2653 16.6667 14 16.6667H19.3333C20.0692 16.6667 20.6666 16.0694 20.6666 15.3334C20.6666 14.5975 20.0694 14 19.3333 14H14C11.7947 14 10 15.7947 10 18V82C10 84.2053 11.7947 86 14 86H86C88.2053 86 90 84.2053 90 82V20.6667C90 18.4614 88.2053 16.6667 86 16.6667ZM42 83.3333H26V16.6667H38C38.7359 16.6667 39.3333 16.0694 39.3333 15.3334C39.3333 14.5975 38.7359 14 38 14H26V10C26 9.25203 26.5853 8.66672 27.3333 8.66672H40.6666C41.4266 8.66672 41.9998 9.24 41.9998 10V83.3333H42ZM71.3333 83.3333H60.6666V19.3333H67.3333C68.0692 19.3333 68.6666 18.7359 68.6666 18C68.6666 17.2641 68.0692 16.6667 67.3333 16.6667H60.6666V12.6667C60.6666 11.9187 61.2519 11.3334 61.9998 11.3334H70C70.76 11.3334 71.3333 11.9067 71.3333 12.6667V83.3333Z" fill="#DF2B23"/>
<path d="M19.3333 70H16.6667C15.9308 70 15.3334 70.5973 15.3334 71.3333C15.3334 72.0692 15.9308 72.6666 16.6667 72.6666H19.3334C20.0694 72.6666 20.6667 72.0692 20.6667 71.3333C20.6667 70.5973 20.0694 70 19.3333 70Z" fill="#DF2B23"/>
<path d="M19.3333 75.3333H16.6667C15.9308 75.3333 15.3334 75.9306 15.3334 76.6665C15.3334 77.4025 15.9308 77.9998 16.6667 77.9998H19.3334C20.0694 77.9998 20.6667 77.4025 20.6667 76.6665C20.6667 75.9306 20.0694 75.3333 19.3333 75.3333Z" fill="#DF2B23"/>
<path d="M54 70H48.6667C47.9308 70 47.3334 70.5973 47.3334 71.3333C47.3334 72.0692 47.9308 72.6666 48.6667 72.6666H54C54.7359 72.6666 55.3333 72.0692 55.3333 71.3333C55.3333 70.5973 54.7359 70 54 70Z" fill="#DF2B23"/>
<path d="M19.3333 38H16.6667C15.9308 38 15.3334 38.5973 15.3334 39.3333C15.3334 40.0692 15.9308 40.6666 16.6667 40.6666H19.3334C20.0694 40.6666 20.6667 40.0692 20.6667 39.3333C20.6667 38.5973 20.0694 38 19.3333 38Z" fill="#DF2B23"/>
<path d="M19.3333 43.3333H16.6667C15.9308 43.3333 15.3334 43.9306 15.3334 44.6665C15.3334 45.4025 15.9306 46 16.6667 46H19.3334C20.0694 46 20.6667 45.4026 20.6667 44.6667C20.6667 43.9308 20.0694 43.3333 19.3333 43.3333Z" fill="#DF2B23"/>
</g>
<defs>
<filter id="filter0_d" x="0" y="0" width="100" height="100" filterUnits="userSpaceOnUse" color-interpolation-filters="sRGB">
<feFlood flood-opacity="0" result="BackgroundImageFix"/>
<feColorMatrix in="SourceAlpha" type="matrix" values="0 0 0 0 0 0 0 0 0 0 0 0 0 0 0 0 0 0 127 0"/>
<feOffset dy="4"/>
<feGaussianBlur stdDeviation="5"/>
<feColorMatrix type="matrix" values="0 0 0 0 0.87451 0 0 0 0 0.168627 0 0 0 0 0.137255 0 0 0 0.2 0"/>
<feBlend mode="normal" in2="BackgroundImageFix" result="effect1_dropShadow"/>
<feBlend mode="normal" in="SourceGraphic" in2="effect1_dropShadow" result="shape"/>
</filter>
</defs>
</svg>
