<svg width="100" height="100" viewBox="0 0 100 100" fill="none" xmlns="http://www.w3.org/2000/svg">
<g filter="url(#filter0_d)">
<path d="M50.0004 16.6669C33.0908 16.6669 19.3334 30.4243 19.3334 47.3339C19.3334 64.2434 33.0908 78.0007 50.0004 78.0007C66.9099 78.0007 80.6674 64.2432 80.6674 47.3337C80.6674 30.4242 66.9099 16.6669 50.0004 16.6669ZM50.0004 75.334C34.5616 75.334 22.0001 62.7738 22.0001 47.3337C22.0001 31.8936 34.5616 19.3335 50.0004 19.3335C65.4405 19.3335 78.0006 31.8936 78.0006 47.3337C78.0006 62.7738 65.4405 75.334 50.0004 75.334Z" fill="#DF2B23"/>
<path d="M62.8698 19.5001C62.7472 19.4442 62.6178 19.4054 62.4845 19.3881L62.1765 19.3467C61.7018 19.2787 61.2312 19.4773 60.9418 19.8573C60.6512 20.2373 60.5859 20.7414 60.7698 21.1826C61.6858 23.372 62.7765 27.7974 61.3818 28.8133L58.2912 30.0493C55.9512 30.9852 54.3112 33.1346 54.0112 35.6667L53.9911 35.82C53.9179 36.3506 53.4844 36.4946 53.3018 36.532C52.9711 36.5987 52.5297 36.5187 52.2764 36.0946L50.9524 33.8879C50.4656 33.0759 49.567 32.5932 48.6338 32.6505C47.6937 32.6985 46.8631 33.2573 46.4631 34.1106C45.2725 36.6532 43.7778 40.3226 43.4151 43.3613C43.3031 44.3039 43.4711 45.256 43.9004 46.116L45.4378 49.1907C45.9831 50.2787 46.8192 51.2013 47.8578 51.8574C48.8152 52.4615 50.5899 53.6801 51.7205 55.0454C53.0072 56.6014 54.7405 57.6069 56.602 57.9069C56.5273 60.4042 56.6913 64.5096 58.3913 66.3229C58.986 66.9562 59.7314 67.3043 60.5567 67.3323C60.7061 67.3523 60.9687 67.379 61.3087 67.379C62.2981 67.379 63.9501 67.1549 65.4608 65.9069C67.5649 64.1683 68.6435 61.1096 68.6675 56.8148L70.5769 48.2201L71.3022 49.428C71.8916 50.4107 72.8769 51.1013 74.0023 51.3227C75.1276 51.5442 76.3009 51.2748 77.2196 50.5868L80.1344 48.4001C80.4703 48.148 80.6676 47.7533 80.6676 47.3333C80.6673 35.4309 73.6806 24.5055 62.8698 19.5001ZM75.6192 48.4537C75.2992 48.6923 74.9059 48.7816 74.5151 48.7057C74.1231 48.6298 73.7937 48.3977 73.5884 48.0551L72.2057 45.7497C71.7498 44.9883 70.891 44.5883 70.011 44.7311C69.135 44.8738 68.4443 45.5258 68.251 46.3925L66.0324 56.3779C66.0109 56.4726 66.0003 56.57 66.0003 56.6673C66.0003 60.13 65.2377 62.6047 63.795 63.8247C62.4764 64.9394 60.9682 64.698 60.9203 64.6915C60.7482 64.6594 60.6176 64.7982 60.3376 64.4994C59.507 63.6127 59.087 60.518 59.3164 56.9714C59.3431 56.55 59.1923 56.13 58.9031 55.822C58.6124 55.5114 58.199 55.334 57.7724 55.334C56.2777 55.334 54.8204 54.61 53.7738 53.3473C52.4764 51.7779 50.6138 50.4446 49.2805 49.6032C48.6538 49.2073 48.1498 48.6526 47.8231 47.9991L46.2858 44.9244C46.0898 44.5324 46.0125 44.1003 46.0631 43.6764C46.3898 40.9484 47.8645 37.4337 48.7817 35.451L49.9911 37.4657C50.7911 38.799 52.2991 39.4537 53.8379 39.1431C55.3299 38.8378 56.4285 37.6764 56.6338 36.1817L56.6618 35.971C56.8445 34.4177 57.8485 33.0977 59.2818 32.5243L62.4965 31.239C62.5633 31.2123 62.6298 31.179 62.6925 31.1416C65.2258 29.603 64.8978 25.9202 64.2325 23.2242C72.4899 28.1136 77.762 37.0017 77.9926 46.6738L75.6192 48.4537Z" fill="#DF2B23"/>
<path d="M43.7136 65.8285L42.9056 65.0218C41.9256 64.0404 40.7815 63.2671 39.507 62.7204L35.3949 60.9577C33.7376 60.2471 32.6669 58.623 32.6669 56.8191V54.8123C32.6669 53.5843 32.0643 52.435 31.0549 51.7349C30.0455 51.0363 28.7563 50.8776 27.6069 51.307L21.2042 53.707C20.5615 53.9484 20.2056 54.6376 20.3842 55.3017C23.3855 66.4791 32.6537 75.1578 43.9964 77.4099C44.0844 77.4272 44.1724 77.4352 44.2578 77.4352C44.8431 77.4352 45.3738 77.0499 45.5405 76.4685L46.0285 74.7591C46.935 71.5847 46.0483 68.162 43.7136 65.8285ZM43.4644 74.0259L43.3203 74.5273C33.9029 72.214 26.2269 65.0232 23.3001 55.7698L28.5428 53.8045C28.8802 53.6765 29.2414 53.7218 29.5361 53.9272C29.8308 54.1312 30.0002 54.4539 30.0002 54.8125V56.8192C30.0002 59.6913 31.7055 62.2779 34.3443 63.4086L38.4564 65.1713C39.419 65.5846 40.2817 66.1687 41.0205 66.9073L41.8284 67.714C43.4777 69.3632 44.1056 71.7818 43.4644 74.0259Z" fill="#DF2B23"/>
<path d="M36.0229 21.2922C35.6055 20.7775 34.8735 20.6481 34.3041 20.9881C25.4987 26.2455 19.9187 35.4803 19.3787 45.6897C19.3546 46.1418 19.5613 46.5751 19.928 46.8404C20.1587 47.0083 20.4321 47.0937 20.7095 47.0937C20.8735 47.0937 21.0374 47.063 21.1921 47.0043L29.4628 43.7402C31.4442 42.9469 32.4669 40.7416 31.7922 38.7175C31.6281 38.2228 31.7549 37.6869 32.1228 37.3175L35.9655 33.4748C37.2776 32.1642 38.0002 30.4201 38.0002 28.5641V26.8294C38.0002 24.8296 37.2976 22.8628 36.0229 21.2922ZM35.3335 28.5629C35.3335 29.7069 34.8882 30.7802 34.0788 31.5882L30.2361 35.4309C29.1494 36.5189 28.7761 38.1003 29.2628 39.5589C29.4922 40.2456 29.1442 40.9936 28.4734 41.2616L22.2307 43.7363C23.2667 35.6709 27.7655 28.4535 34.6015 23.9481C35.0788 24.8349 35.3335 25.8268 35.3335 26.8282V28.5629Z" fill="#DF2B23"/>
<path d="M50.0004 6C48.6218 6 47.231 6.07063 45.867 6.21063C45.135 6.28532 44.6017 6.94126 44.6764 7.6733C44.747 8.36002 45.327 8.87065 46.0017 8.87065C46.047 8.87065 46.0938 8.86799 46.1391 8.86268C47.4124 8.73331 48.7111 8.66674 50.0005 8.66674C50.7365 8.66674 51.3338 8.06939 51.3338 7.33345C51.3338 6.59751 50.7363 6 50.0004 6Z" fill="#DF2B23"/>
<path d="M13.1921 52.2751C12.8441 50.2163 12.6667 48.1056 12.6667 46.0003C12.6667 45.555 12.6747 45.1109 12.6908 44.667C12.7161 43.9311 12.1402 43.315 11.4041 43.2884C10.6747 43.2498 10.052 43.839 10.0255 44.5751C10.008 45.0483 10 45.523 10 46.0003C10 48.2536 10.1894 50.515 10.5614 52.7204C10.672 53.371 11.2361 53.831 11.8747 53.831C11.9494 53.831 12.0241 53.8257 12.1 53.8124C12.8253 53.6898 13.3147 53.0016 13.1921 52.2751Z" fill="#DF2B23"/>
<path d="M18.7229 66.3926C17.3307 64.2618 16.1547 61.9832 15.228 59.6191C14.9586 58.9338 14.1853 58.595 13.5 58.8644C12.8147 59.1324 12.476 59.9058 12.7453 60.5924C13.7386 63.1257 14.9986 65.5671 16.4894 67.8498C16.7454 68.2418 17.1721 68.4539 17.6068 68.4539C17.8574 68.4539 18.1108 68.3832 18.3362 68.2379C18.9521 67.8353 19.1255 67.0085 18.7229 66.3926Z" fill="#DF2B23"/>
<path d="M15.6586 28.1628C14.9946 27.8469 14.1986 28.1282 13.8813 28.7922C12.7066 31.2522 11.7839 33.8416 11.1386 36.487C10.9641 37.2029 11.4014 37.9243 12.1173 38.0989C12.2241 38.1242 12.3306 38.1362 12.4347 38.1362C13.0347 38.1362 13.58 37.7268 13.7294 37.1189C14.3321 34.6509 15.1921 32.2348 16.288 29.9402C16.6054 29.2749 16.3239 28.4802 15.6586 28.1628Z" fill="#DF2B23"/>
<path d="M25.5895 15.9826C25.1055 15.4279 24.2642 15.3693 23.7081 15.8547C21.656 17.6467 19.7801 19.6547 18.1334 21.8214C17.688 22.4068 17.8013 23.2441 18.3881 23.6894C18.6293 23.8735 18.9121 23.9615 19.1934 23.9615C19.596 23.9615 19.9934 23.7788 20.256 23.4347C21.7934 21.4108 23.5454 19.5361 25.4616 17.8641C26.0162 17.38 26.0736 16.5373 25.5895 15.9826Z" fill="#DF2B23"/>
<path d="M43.495 82.7714C40.9896 82.33 38.5229 81.63 36.1655 80.6887C35.4802 80.4154 34.7055 80.7473 34.4322 81.4328C34.1589 82.1154 34.4922 82.8914 35.1763 83.1648C37.703 84.1742 40.347 84.9248 43.0323 85.3969C43.1097 85.4101 43.187 85.4169 43.2643 85.4169C43.9003 85.4169 44.4631 84.9609 44.5776 84.3156C44.7044 83.5901 44.2203 82.8993 43.495 82.7714Z" fill="#DF2B23"/>
<path d="M60.2631 83.3154C60.0925 82.598 59.371 82.158 58.6578 82.326C56.1937 82.9113 53.651 83.246 51.0991 83.3193C50.3632 83.3393 49.7831 83.954 49.8044 84.6899C49.8258 85.4126 50.4177 85.9846 51.1364 85.9846C51.1485 85.9846 51.1618 85.9846 51.1764 85.9834C53.9097 85.9048 56.6338 85.5474 59.2739 84.9207C59.9898 84.7501 60.4325 84.0313 60.2631 83.3154Z" fill="#DF2B23"/>
<path d="M39.5376 8.74128C39.3149 8.03987 38.5643 7.6533 37.8629 7.87455C35.2682 8.69987 32.7481 9.79863 30.3734 11.1386C29.732 11.5013 29.5067 12.3146 29.8681 12.956C30.1134 13.3893 30.5655 13.6334 31.0308 13.6334C31.2522 13.6334 31.4775 13.5774 31.6841 13.4613C33.8988 12.2107 36.2508 11.1854 38.6709 10.416C39.3723 10.1933 39.7602 9.44269 39.5376 8.74128Z" fill="#DF2B23"/>
<path d="M29.4135 77.1486C27.2961 75.7472 25.3134 74.1206 23.5187 72.3153C23.0001 71.7939 22.1546 71.79 21.6334 72.31C21.112 72.83 21.1093 73.6741 21.6281 74.1967C23.5507 76.13 25.6748 77.8727 27.9414 79.3741C28.1681 79.5235 28.4241 79.5955 28.6761 79.5955C29.1081 79.5955 29.5321 79.3862 29.7881 78.9969C30.1949 78.3833 30.0269 77.5554 29.4135 77.1486Z" fill="#DF2B23"/>
<path d="M71.142 78.4074C70.7593 77.778 69.9393 77.5753 69.3099 77.958C68.214 78.622 67.0699 79.2353 65.9099 79.7833C65.2446 80.098 64.9578 80.8913 65.2725 81.558C65.5005 82.0407 65.9792 82.3233 66.4793 82.3233C66.6699 82.3233 66.8633 82.2819 67.0486 82.1954C68.2927 81.6086 69.518 80.9513 70.6927 80.2394C71.322 79.8566 71.5232 79.0366 71.142 78.4074Z" fill="#DF2B23"/>
<path d="M89.7195 65.1817C89.2662 64.5991 88.4274 64.495 87.8488 64.947L75.8487 74.2804C75.5247 74.5337 75.334 74.9218 75.334 75.3337V79.3337C75.334 80.0697 75.9314 80.667 76.6673 80.667C77.4033 80.667 78.0006 80.0697 78.0006 79.3337V75.9857L89.4848 67.0524C90.0661 66.6005 90.1714 65.7631 89.7195 65.1817Z" fill="#DF2B23"/>
<path d="M77.09 74.0686L73.09 72.7353C72.3886 72.4994 71.6353 72.8806 71.4032 73.578C71.17 74.2766 71.5473 75.0313 72.2459 75.2647L76.2459 76.598C76.3859 76.6447 76.5286 76.6674 76.6673 76.6674C77.2259 76.6674 77.746 76.3141 77.9327 75.7553C78.166 75.0566 77.7886 74.3019 77.09 74.0686Z" fill="#DF2B23"/>
<path d="M87.2381 76.1701L84.5713 69.5033C84.4634 69.2326 84.2687 69.0047 84.0193 68.8553L77.3525 64.8553C76.7205 64.4767 75.9019 64.6806 75.5231 65.3126C75.1444 65.9446 75.3484 66.7633 75.9805 67.142L82.2619 70.9114L84.762 77.1621C84.9713 77.6835 85.4713 78.0007 86.0006 78.0007C86.1659 78.0007 86.3338 77.9701 86.4952 77.9034C87.1795 77.6301 87.5114 76.854 87.2381 76.1701Z" fill="#DF2B23"/>
</g>
<defs>
<filter id="filter0_d" x="0" y="0" width="100" height="99.9846" filterUnits="userSpaceOnUse" color-interpolation-filters="sRGB">
<feFlood flood-opacity="0" result="BackgroundImageFix"/>
<feColorMatrix in="SourceAlpha" type="matrix" values="0 0 0 0 0 0 0 0 0 0 0 0 0 0 0 0 0 0 127 0"/>
<feOffset dy="4"/>
<feGaussianBlur stdDeviation="5"/>
<feColorMatrix type="matrix" values="0 0 0 0 0.87451 0 0 0 0 0.168627 0 0 0 0 0.137255 0 0 0 0.2 0"/>
<feBlend mode="normal" in2="BackgroundImageFix" result="effect1_dropShadow"/>
<feBlend mode="normal" in="SourceGraphic" in2="effect1_dropShadow" result="shape"/>
</filter>
</defs>
</svg>
