<svg width="100" height="100" viewBox="0 0 100 100" fill="none" xmlns="http://www.w3.org/2000/svg">
<g filter="url(#filter0_d)">
<path d="M19.1611 12.6553L49.8281 16.6554C49.8854 16.6621 49.9428 16.666 50.0001 16.666C50.0574 16.666 50.1148 16.6619 50.1721 16.6554L79.3338 12.8513V17.4807C78.4978 18.4207 76.667 20.766 76.667 23.3328C76.667 26.2675 79.0591 27.3328 80.6671 27.3328C82.2751 27.3328 84.6671 26.2675 84.6671 23.3328C84.6671 20.766 82.8365 18.4207 82.0004 17.4807V11.3327C82.0004 11.1567 81.963 10.99 81.9004 10.8353C81.8777 10.7806 81.839 10.738 81.8097 10.6873C81.7577 10.5941 81.7057 10.502 81.6338 10.4247C81.5871 10.3753 81.5311 10.342 81.4779 10.302C81.4019 10.2406 81.3272 10.182 81.2393 10.1394C81.174 10.1073 81.1046 10.0941 81.034 10.0741C80.9686 10.0541 80.9099 10.0194 80.8393 10.01L50.1723 6.00996C50.0576 5.99668 49.9429 5.99668 49.8282 6.00996L19.1613 10.01C18.4972 10.0967 18 10.6633 18 11.3327C17.9997 12.002 18.497 12.5688 19.1611 12.6553ZM82.0002 23.3328C82.0002 24.3968 81.2788 24.6461 80.6669 24.6661C80.0549 24.6461 79.3336 24.3967 79.3336 23.3328C79.3336 22.226 80.0136 20.9913 80.6669 20.0807C81.3202 20.9915 82.0002 22.2262 82.0002 23.3328ZM50 8.6767L70.3587 11.3327L50 13.9888L29.6412 11.3327L50 8.6767Z" fill="#DF2B23"/>
<path d="M58 45.9997C60.6933 45.9997 62.9054 43.985 63.2601 41.3864L68.1334 37.7331C68.7228 37.2917 68.8428 36.4557 68.4001 35.8663C67.9587 35.277 67.1228 35.1557 66.5334 35.5996L63.1348 38.149C62.6268 36.5237 61.1254 35.333 59.3333 35.333H54C51.7947 35.333 50 37.1277 50 39.3331C50 37.1277 48.2053 35.333 45.9999 35.333H40.6666C38.8746 35.333 37.3733 36.5237 36.8652 38.149L33.4665 35.5996C32.8786 35.1582 32.0412 35.2782 31.5998 35.8663C31.1571 36.4557 31.2771 37.2917 31.8665 37.7331L36.7398 41.3864C37.0945 43.985 39.3052 45.9997 41.9999 45.9997H44.6666C47.6081 45.9997 50 43.6076 50 40.6664C50 43.6078 52.392 45.9997 55.3333 45.9997H58ZM47.3332 40.6664C47.3332 42.137 46.1359 43.3331 44.6665 43.3331H41.9997C40.5291 43.3331 39.333 42.1372 39.333 40.6664V39.3331C39.333 38.5984 39.9303 37.9998 40.6663 37.9998H45.9996C46.7356 37.9998 47.3329 38.5984 47.3329 39.3331V40.6664H47.3332ZM52.6667 40.6664V39.3331C52.6667 38.5984 53.264 37.9998 54 37.9998H59.3333C60.0693 37.9998 60.6666 38.5984 60.6666 39.3331V40.6664C60.6666 42.137 59.4707 43.3331 57.9999 43.3331H55.3331C53.8626 43.333 52.6667 42.137 52.6667 40.6664Z" fill="#DF2B23"/>
<path d="M71.2789 73.6732C71.2536 73.5785 71.2136 73.4932 71.1695 73.4052C71.1442 73.3585 71.1389 73.3052 71.1095 73.2599C71.0948 73.2399 71.0736 73.2293 71.0589 73.2093C71.0029 73.136 70.9336 73.076 70.8615 73.0146C70.7975 72.956 70.7348 72.8987 70.6589 72.8559C70.6362 72.8412 70.6229 72.8199 70.5975 72.8065L65.2641 70.1412C64.8347 69.9265 64.3254 69.9585 63.9282 70.2238L55.9267 75.5571C55.5561 75.8039 55.3334 76.2212 55.3334 76.6665V81.3945C54.5401 82.0292 52.5921 83.3331 50.0001 83.3331C47.4334 83.3331 45.4668 82.0225 44.6668 81.3905V76.6664C44.6668 76.221 44.4441 75.8037 44.0735 75.557L36.0734 70.2237C35.6761 69.9583 35.1667 69.9263 34.7375 70.141L29.4041 72.8063C29.3801 72.8184 29.3668 72.8396 29.3456 72.853C29.2656 72.8984 29.1988 72.9584 29.1309 73.021C29.0641 73.0798 28.9976 73.1357 28.9455 73.2051C28.9296 73.2265 28.9055 73.2384 28.8909 73.2598C28.8588 73.3077 28.8535 73.3624 28.8282 73.4131C28.7868 73.4971 28.7468 73.5784 28.7229 73.669C28.7015 73.7531 28.6962 73.8331 28.6909 73.9184C28.6855 74.0024 28.6815 74.0837 28.6923 74.169C28.7029 74.2623 28.7337 74.3476 28.7643 74.4357C28.7829 74.489 28.7816 74.5451 28.807 74.5957C28.819 74.6198 28.8416 74.6343 28.8549 74.6571C28.899 74.7345 28.959 74.7998 29.0202 74.8678C29.0802 74.9345 29.1362 75.001 29.2056 75.0545C29.227 75.0704 29.2388 75.0945 29.2602 75.1092L37.2603 80.4425C37.4883 80.5945 37.7456 80.6666 37.9989 80.6666C38.4295 80.6666 38.8536 80.4586 39.1095 80.0733C39.5189 79.46 39.3536 78.6318 38.7402 78.2239L32.6507 74.1652L35.2375 72.872L42.0002 77.38V82C42.0002 82.3533 42.1402 82.6933 42.3908 82.9427C42.5161 83.068 45.5002 86 50.0003 86C54.5003 86 57.4844 83.068 57.6097 82.9427C57.8591 82.6933 58.0003 82.3533 58.0003 82V77.38L64.7644 72.872L67.3498 74.164L61.2603 78.224C60.6471 78.632 60.4817 79.46 60.891 80.0734C61.1469 80.4587 61.571 80.6667 62.0016 80.6667C62.2549 80.6667 62.5122 80.5947 62.7402 80.4426L70.7403 75.1093C70.7617 75.0946 70.7723 75.072 70.7923 75.0573C70.867 75.0013 70.9256 74.932 70.9882 74.8613C71.0442 74.7946 71.1015 74.7346 71.1442 74.6599C71.1575 74.6359 71.1815 74.6213 71.1936 74.5959C71.2215 74.5412 71.2215 74.4826 71.2403 74.4265C71.2682 74.3424 71.2976 74.2624 71.3082 74.1745C71.3203 74.0838 71.3162 73.9985 71.3097 73.9091C71.3042 73.8293 71.3001 73.7532 71.2789 73.6732Z" fill="#DF2B23"/>
<path d="M76.7616 69.1625C76.9709 69.6825 77.471 69.9998 78.0002 69.9998C78.1655 69.9998 78.3322 69.9692 78.4949 69.9039C79.1789 69.6318 79.5108 68.8559 79.2389 68.1718C79.2122 68.1078 76.6669 61.6532 76.6669 55.3331V44.6663C76.6669 33.3062 70.8442 30.2648 70.5962 30.1409C70.1842 29.9342 69.6921 29.9542 69.3003 30.1982C68.907 30.4423 68.667 30.8703 68.667 31.3329V36.6662C68.667 41.7089 64.8083 52.0678 63.4736 54.737C62.2777 57.1303 55.9495 64.6665 50.0003 64.6665C44.051 64.6665 37.7228 57.1305 36.5255 54.737C35.1922 52.0676 31.3334 41.7089 31.3334 36.6662V31.3329C31.3334 30.8703 31.0934 30.4423 30.7001 30.1982C30.3068 29.9542 29.816 29.9342 29.4042 30.1409C29.1562 30.2649 23.3335 33.3062 23.3335 44.6663V55.3331C23.3335 61.6532 20.7881 68.1079 20.7614 68.1718C20.4894 68.8559 20.8214 69.6318 21.5055 69.9039C22.1869 70.1759 22.9655 69.8453 23.2388 69.1625C23.3508 68.8798 26.0001 62.1783 26.0001 55.333V44.6662C26.0001 39.2594 27.4094 36.1181 28.6668 34.3901V36.6661C28.6668 42.3888 32.8654 53.3795 34.1401 55.9289C35.7628 59.1742 42.8643 67.3331 50.0003 67.3331C57.1363 67.3331 64.2377 59.1742 65.859 55.9289C67.1349 53.3795 71.3337 42.3888 71.3337 36.6661V34.3928C72.5937 36.1222 74.0005 39.2622 74.0005 44.6662V55.333C74.0001 62.1783 76.6495 68.8798 76.7616 69.1625Z" fill="#DF2B23"/>
<path d="M53.0733 54.3756C53.0306 54.4142 52.0253 55.333 50 55.333C48.004 55.333 46.9985 54.4409 46.9293 54.377C46.4107 53.8691 45.5746 53.873 45.0573 54.3903C44.5358 54.9117 44.5358 55.7544 45.0573 56.2756C45.2332 56.4516 46.8706 57.9997 50 57.9997C53.1294 57.9997 54.7667 56.4517 54.9427 56.2756C55.4573 55.7609 55.4559 54.937 54.9506 54.4142C54.4426 53.8917 53.6053 53.877 53.0733 54.3756Z" fill="#DF2B23"/>
<path d="M89.9309 84.2453C89.8136 83.8906 86.9042 75.5185 75.6561 72.7066C74.9414 72.5252 74.2188 72.9625 74.0402 73.6759C73.8616 74.3906 74.2961 75.1146 75.0108 75.2933C84.7803 77.736 87.3015 84.7948 87.4029 85.0881C87.5883 85.6468 88.1083 86.0001 88.667 86.0001C88.8056 86.0001 88.9484 85.9787 89.0884 85.9321C89.787 85.6986 90.1644 84.944 89.9309 84.2453Z" fill="#DF2B23"/>
<path d="M71.3334 25.9995V16.6662C71.3334 15.9302 70.7375 15.3329 70.0001 15.3329C69.2628 15.3329 68.6668 15.9302 68.6668 16.6662V25.1369C66.4615 26.0716 59.4827 28.6663 50 28.6663C40.5172 28.6663 33.5384 26.0716 31.3331 25.1369V16.6662C31.3331 15.9302 30.7371 15.3329 29.9998 15.3329C29.2624 15.3329 28.6665 15.9302 28.6665 16.6662V25.9995C28.6665 26.5049 28.9518 26.9663 29.4039 27.1928C29.7425 27.3608 37.8253 31.3329 50 31.3329C62.1746 31.3329 70.2575 27.3608 70.5961 27.1928C71.0481 26.9663 71.3334 26.5049 71.3334 25.9995Z" fill="#DF2B23"/>
<path d="M24.3438 72.7066C13.0958 75.5186 10.1864 83.8907 10.069 84.2453C9.83573 84.9439 10.2131 85.6985 10.9117 85.932C11.0517 85.9787 11.1931 86 11.3331 86C11.8917 86 12.4117 85.6467 12.5972 85.0879C12.6225 85.0146 15.1466 77.7532 24.9893 75.2931C25.704 75.1146 26.1387 74.3905 25.9599 73.6758C25.7812 72.9625 25.0571 72.5252 24.3438 72.7066Z" fill="#DF2B23"/>
</g>
<defs>
<filter id="filter0_d" x="0" y="0" width="100" height="100" filterUnits="userSpaceOnUse" color-interpolation-filters="sRGB">
<feFlood flood-opacity="0" result="BackgroundImageFix"/>
<feColorMatrix in="SourceAlpha" type="matrix" values="0 0 0 0 0 0 0 0 0 0 0 0 0 0 0 0 0 0 127 0"/>
<feOffset dy="4"/>
<feGaussianBlur stdDeviation="5"/>
<feColorMatrix type="matrix" values="0 0 0 0 0.87451 0 0 0 0 0.168627 0 0 0 0 0.137255 0 0 0 0.2 0"/>
<feBlend mode="normal" in2="BackgroundImageFix" result="effect1_dropShadow"/>
<feBlend mode="normal" in="SourceGraphic" in2="effect1_dropShadow" result="shape"/>
</filter>
</defs>
</svg>
