<svg width="110" height="92" viewBox="0 0 110 92" fill="none" xmlns="http://www.w3.org/2000/svg">
<g filter="url(#filter0_d)">
<path d="M91 6H52C47.0314 6.00488 43.0049 10.0315 43 15V33.0001H19C14.0314 33.005 10.0049 37.0316 10 42.0002V63.0003C10.0054 67.3903 13.1725 71.138 17.5 71.8758V76.5004C17.5002 77.3288 18.1718 78.0002 19.0004 78C19.3981 78 19.7792 77.8419 20.0605 77.5609L25.621 72.0003H58C62.9686 71.9955 66.9951 67.9689 67 63.0003V45.0002H84.379L89.9395 50.5607C90.5254 51.1465 91.4751 51.1463 92.0609 50.5604C92.3419 50.2791 92.5 49.8977 92.5 49.5002V44.8757C96.8275 44.1379 99.9946 40.3901 100 36.0002V15C99.9951 10.0315 95.9686 6.00488 91 6ZM64 63.0003C64 66.314 61.3137 69.0003 58 69.0003H25C24.6021 69.0003 24.2208 69.1586 23.9395 69.4398L20.5 72.8793V70.5003C20.5 69.672 19.8284 69.0003 19 69.0003C15.6863 69.0003 13 66.314 13 63.0003V42.0002C13 38.6865 15.6863 36.0002 19 36.0002H58C61.3137 36.0002 64 38.6865 64 42.0002V63.0003ZM97 36.0002C97 39.3139 94.3137 42.0002 91 42.0002C90.1716 42.0002 89.5 42.6718 89.5 43.5002V45.8792L86.0605 42.4397C85.7793 42.1584 85.3979 42.0002 85 42.0002H67C66.9951 37.0316 62.9686 33.005 58 33.0001H46V15C46 11.6863 48.6863 9.00002 52 9.00002H91C94.3137 9.00002 97 11.6863 97 15V36.0002Z" fill="#DF2B23"/>
<path d="M26.5 48.0002C24.0147 48.0002 22 50.0149 22 52.5003C22 54.9856 24.0147 57.0003 26.5 57.0003C28.9853 57.0003 31 54.9856 31 52.5003C31 50.0149 28.9853 48.0002 26.5 48.0002ZM26.5 54.0003C25.6716 54.0003 25 53.3286 25 52.5003C25 51.6719 25.6716 51.0003 26.5 51.0003C27.3284 51.0003 28 51.6719 28 52.5003C28 53.3286 27.3284 54.0003 26.5 54.0003Z" fill="#DF2B23"/>
<path d="M38.5 48.0002C36.0147 48.0002 34 50.0149 34 52.5003C34 54.9856 36.0147 57.0003 38.5 57.0003C40.9853 57.0003 43 54.9856 43 52.5003C43 50.0149 40.9853 48.0002 38.5 48.0002ZM38.5 54.0003C37.6716 54.0003 37 53.3286 37 52.5003C37 51.6719 37.6716 51.0003 38.5 51.0003C39.3284 51.0003 40 51.6719 40 52.5003C40 53.3286 39.3284 54.0003 38.5 54.0003Z" fill="#DF2B23"/>
<path d="M50.5 48.0002C48.0147 48.0002 46 50.0149 46 52.5003C46 54.9856 48.0147 57.0003 50.5 57.0003C52.9853 57.0003 55 54.9856 55 52.5003C55 50.0149 52.9853 48.0002 50.5 48.0002ZM50.5 54.0003C49.6716 54.0003 49 53.3286 49 52.5003C49 51.6719 49.6716 51.0003 50.5 51.0003C51.3284 51.0003 52 51.6719 52 52.5003C52 53.3286 51.3284 54.0003 50.5 54.0003Z" fill="#DF2B23"/>
<path d="M79 15H52V18H79V15Z" fill="#DF2B23"/>
<path d="M91 15H82V18H91V15Z" fill="#DF2B23"/>
<path d="M61 21.0001H52V24.0001H61V21.0001Z" fill="#DF2B23"/>
<path d="M82 21.0001H64V24.0001H82V21.0001Z" fill="#DF2B23"/>
<path d="M91 27.0001H52V30.0001H91V27.0001Z" fill="#DF2B23"/>
<path d="M79 33.0001H67V36.0001H79V33.0001Z" fill="#DF2B23"/>
<path d="M91 33.0001H82V36.0001H91V33.0001Z" fill="#DF2B23"/>
<path d="M91 21.0001H85V24.0001H91V21.0001Z" fill="#DF2B23"/>
</g>
<defs>
<filter id="filter0_d" x="0" y="0" width="110" height="92" filterUnits="userSpaceOnUse" color-interpolation-filters="sRGB">
<feFlood flood-opacity="0" result="BackgroundImageFix"/>
<feColorMatrix in="SourceAlpha" type="matrix" values="0 0 0 0 0 0 0 0 0 0 0 0 0 0 0 0 0 0 127 0"/>
<feOffset dy="4"/>
<feGaussianBlur stdDeviation="5"/>
<feColorMatrix type="matrix" values="0 0 0 0 0.87451 0 0 0 0 0.168627 0 0 0 0 0.137255 0 0 0 0.2 0"/>
<feBlend mode="normal" in2="BackgroundImageFix" result="effect1_dropShadow"/>
<feBlend mode="normal" in="SourceGraphic" in2="effect1_dropShadow" result="shape"/>
</filter>
</defs>
</svg>
