<svg width="88" height="92" viewBox="0 0 88 92" fill="none" xmlns="http://www.w3.org/2000/svg">
<g filter="url(#filter0_d)">
<path d="M39.8045 15.4701C39.8045 16.2479 39.502 16.9796 38.9533 17.5295C38.5422 17.9415 38.5422 18.6089 38.9533 19.0209C39.1588 19.2269 39.428 19.3301 39.6976 19.3301C39.9667 19.3301 40.2359 19.2269 40.4414 19.0209C41.388 18.0728 41.9092 16.8115 41.9092 15.4701C41.9092 14.1287 41.388 12.8674 40.4414 11.9193C39.3085 10.7839 39.3085 8.93596 40.4414 7.80053C40.8525 7.38854 40.8525 6.72057 40.4414 6.30913C40.0303 5.89714 39.3644 5.89714 38.9533 6.30913C36.9999 8.2669 36.9999 11.4529 38.9533 13.4107C39.502 13.9606 39.8045 14.6923 39.8045 15.4701ZM61.7235 17.5295C61.3124 17.9415 61.3124 18.6089 61.7235 19.0209C61.9291 19.2269 62.1982 19.3296 62.4678 19.3296C62.7369 19.3296 63.0066 19.2269 63.2122 19.0209C65.1656 17.0631 65.1656 13.8771 63.2116 11.9188C62.663 11.3689 62.361 10.6378 62.361 9.85992C62.361 9.08153 62.663 8.35039 63.2116 7.80053C63.6227 7.38854 63.6227 6.72057 63.2122 6.30858C62.8005 5.89714 62.1346 5.89714 61.7235 6.30858C60.7769 7.25725 60.2557 8.51793 60.2557 9.85937C60.2557 11.2008 60.7769 12.462 61.7235 13.4107C62.8564 14.5461 62.8564 16.394 61.7235 17.5295ZM50.3384 17.5295C49.9273 17.9415 49.9273 18.6089 50.3384 19.0209C50.5439 19.2269 50.8131 19.3296 51.0827 19.3296C51.3518 19.3296 51.621 19.2269 51.8265 19.0209C53.7805 17.0631 53.7805 13.8771 51.8265 11.9188C50.6936 10.7833 50.6936 8.93596 51.8265 7.80053C52.2376 7.38854 52.2376 6.72057 51.8265 6.30858C51.4154 5.89714 50.7495 5.89714 50.3384 6.30858C48.385 8.2669 48.385 11.4524 50.3384 13.4107C51.4713 14.5461 51.4713 16.394 50.3384 17.5295ZM59.1321 39.9719C59.1321 39.439 59.5651 39.0051 60.0968 39.0051C60.6284 39.0051 61.0614 39.439 61.0614 39.9719C61.0614 40.5547 61.5322 41.0265 62.1138 41.0265C62.6947 41.0265 63.1661 40.5547 63.1661 39.9719C63.1661 38.2761 61.7893 36.8957 60.0968 36.8957C58.4042 36.8957 57.0274 38.2761 57.0274 39.9719C57.0274 40.5547 57.4988 41.0265 58.0798 41.0265C58.6613 41.0265 59.1321 40.5547 59.1321 39.9719ZM41.1035 39.9719C41.1035 39.439 41.5365 39.0051 42.0681 39.0051C42.6004 39.0051 43.0328 39.439 43.0328 39.9719C43.0328 40.5547 43.5042 41.0265 44.0852 41.0265C44.6667 41.0265 45.1375 40.5547 45.1375 39.9719C45.1375 38.2761 43.7607 36.8957 42.0681 36.8957C40.3762 36.8957 38.9988 38.2761 38.9988 39.9719C38.9988 40.5547 39.4702 41.0265 40.0511 41.0265C40.6327 41.0265 41.1035 40.5547 41.1035 39.9719ZM51.0827 55.4511C48.9874 55.4511 47.2828 57.1589 47.2828 59.2589C47.2828 61.3584 48.9874 63.0668 51.0827 63.0668C53.1776 63.0668 54.8821 61.3584 54.8821 59.2589C54.8821 57.1589 53.1776 55.4511 51.0827 55.4511ZM51.0827 60.9574C50.1482 60.9574 49.3875 60.1955 49.3875 59.2589C49.3875 58.3223 50.1482 57.5604 51.0827 57.5604C52.0172 57.5604 52.7775 58.3223 52.7775 59.2589C52.7775 60.1955 52.0172 60.9574 51.0827 60.9574ZM51.0827 44.3658C52.2069 44.3658 53.2757 43.878 54.0151 43.0277C54.3971 42.5882 54.351 41.9219 53.9131 41.5396C53.4746 41.1567 52.8103 41.2023 52.4283 41.6418C52.0885 42.0323 51.5979 42.2565 51.0822 42.2565C50.567 42.2565 50.0764 42.0323 49.7366 41.6418C49.354 41.2023 48.6897 41.1567 48.2518 41.5396C47.8133 41.9219 47.7678 42.5882 48.1493 43.0277C48.8892 43.878 49.9586 44.3658 51.0827 44.3658ZM71.7817 41.8395C70.2306 40.4849 69.6786 38.2794 70.407 36.3513L73.6167 27.86C74.0749 26.6482 73.9099 25.2886 73.1749 24.2224C72.4405 23.1561 71.2303 22.52 69.9373 22.52H39.5573C38.9758 22.52 38.505 22.9919 38.505 23.5747C38.505 24.157 38.9758 24.6294 39.5573 24.6294H69.9373C70.5479 24.6294 71.0965 24.9178 71.4435 25.421C71.7899 25.9242 71.865 26.541 71.6485 27.1129L68.4388 35.6042C67.4002 38.3536 68.1872 41.4984 70.3988 43.4298C74.1933 46.7449 76.1319 51.5652 75.8688 56.4107C70.6937 58.5833 68.3906 57.6165 64.9672 56.1773C63.1634 55.4187 61.1381 54.5694 58.3576 53.9827C58.271 53.4614 58.0496 53.0028 57.6873 52.6397C56.8268 51.7772 55.4308 51.7014 53.9285 52.3732C53.3398 50.8335 52.2995 49.8975 51.0827 49.8975C49.8654 49.8975 48.8251 50.8335 48.237 52.3732C46.7341 51.7014 45.3387 51.7772 44.4776 52.6397C44.1153 53.0028 43.8944 53.4614 43.8073 53.9827C41.0268 54.5689 39.0015 55.4187 37.1977 56.1773C33.7743 57.6165 31.4712 58.5833 26.2966 56.4107C26.0335 51.5652 27.9716 46.7449 31.7666 43.4298C32.6705 42.6399 33.3358 41.6473 33.7365 40.5624C33.7683 40.4959 33.793 40.4256 33.8105 40.3531C34.3169 38.837 34.3131 37.1577 33.7261 35.6042L30.5164 27.1129C30.3005 26.541 30.375 25.9242 30.722 25.421C31.0689 24.9178 31.6176 24.6294 32.2276 24.6294H34.6058C35.1868 24.6294 35.6581 24.157 35.6581 23.5747C35.6581 22.9919 35.1868 22.52 34.6058 22.52H32.2276C30.9352 22.52 29.7244 23.1561 28.99 24.2224C28.2555 25.2886 28.0905 26.6482 28.5482 27.86L30.5329 33.1103C29.6992 33.0373 28.8721 32.8851 28.0598 32.6544C24.1135 31.5354 19.8828 32.1842 16.4517 34.4347C13.0206 36.6853 10.7339 40.3113 10.1781 44.3834C9.1225 52.1211 12.8216 59.6056 19.6032 63.4519L27.4964 67.9283C27.6082 67.992 27.7239 68.0552 27.8406 68.1167L28.8716 70.6452C30.6935 75.1128 34.9823 78 39.7985 78H62.3664C65.3886 78 68.2651 76.8552 70.4651 74.7766C70.8883 74.3773 70.908 73.7098 70.5095 73.2858C70.1105 72.8617 69.4446 72.8425 69.022 73.2418C67.2138 74.9502 64.8499 75.8906 62.3664 75.8906H39.7985C35.8412 75.8906 32.3164 73.5181 30.8195 69.847L28.9247 65.2004C29.9009 65.4151 30.7894 65.5096 31.6159 65.5096C34.0358 65.5096 35.9333 64.7115 38.0106 63.8386C39.5924 63.1739 41.3748 62.4252 43.696 61.8836C43.8593 61.9654 44.0314 62.0418 44.2123 62.111C43.542 63.6172 43.6171 65.0158 44.4776 65.8782C45.3381 66.7406 46.7341 66.8164 48.2365 66.1446C48.8251 67.6844 49.8654 68.6199 51.0822 68.6199C52.2995 68.6199 53.3398 67.6844 53.9279 66.1446C55.4308 66.8164 56.8263 66.7406 57.6873 65.8782C58.5478 65.0158 58.6229 63.6172 57.9526 62.111C58.1335 62.0418 58.3056 61.9654 58.4689 61.8836C60.7896 62.4252 62.5725 63.1739 64.1543 63.8386C66.2316 64.7115 68.1286 65.5096 70.549 65.5096C71.3755 65.5096 72.2635 65.4151 73.2402 65.2004L71.4621 69.5603C71.2423 70.0997 71.4999 70.715 72.0382 70.9358C72.1686 70.9891 72.3029 71.0143 72.4356 71.0143C72.8505 71.0143 73.2435 70.7671 73.4101 70.3584L76.651 62.4104C79.586 55.2143 77.6288 46.9476 71.7817 41.8395ZM30.3832 41.8395C26.0094 45.6606 23.8126 51.2499 24.2116 56.8359L23.5501 56.4607C19.6422 54.2442 17.5106 49.931 18.119 45.4722C18.3601 43.705 19.3522 42.1323 20.8408 41.1556C22.3289 40.1795 24.1645 39.8982 25.8768 40.3833C27.5561 40.8601 29.2744 41.1265 31.0048 41.1814C30.819 41.4166 30.6134 41.6385 30.3832 41.8395ZM20.6391 61.6155C14.6123 58.1977 11.3248 51.5454 12.2631 44.6696C12.7361 41.2029 14.683 38.1157 17.6043 36.1997C20.5251 34.2837 24.1267 33.7311 27.486 34.6841C28.7494 35.0423 30.0445 35.2356 31.3468 35.2642L31.7579 36.3513C32.0933 37.2395 32.1541 38.1855 31.9738 39.0809C30.1103 39.11 28.2561 38.8661 26.4501 38.3541C24.1514 37.7021 21.6866 38.08 19.6882 39.3907C17.6893 40.7019 16.3574 42.814 16.0335 45.186C15.3078 50.5061 17.8515 55.6521 22.5136 58.2965L24.6003 59.4798C24.82 60.4691 25.122 61.4496 25.5139 62.4104L26.5586 64.9729L20.6391 61.6155ZM41.742 59.2589C41.742 59.5737 41.8051 59.8764 41.924 60.1631C40.0583 60.6916 38.5559 61.3222 37.1961 61.8935C34.0845 63.2014 31.9914 64.0803 27.9206 62.7389L27.4619 61.6128C27.0853 60.6899 26.8031 59.7473 26.6057 58.7964C28.5773 59.5155 30.1985 59.8022 31.6329 59.8022C34.016 59.8022 35.8878 59.0156 38.0117 58.1224C39.6894 57.4171 41.5683 56.6288 44.0791 56.0817C44.1197 56.1894 44.1635 56.2976 44.2118 56.4069C42.6754 56.9968 41.742 58.0395 41.742 59.2589ZM56.1866 60.4125C55.8309 60.4735 55.5311 60.7135 55.393 61.0481C55.2549 61.3826 55.2971 61.7644 55.5059 62.0605C56.3368 63.2387 56.3982 64.1869 56.1992 64.3868C55.9997 64.5862 55.0537 64.5247 53.878 63.6914C53.5832 63.4826 53.2017 63.4398 52.8679 63.5788C52.5341 63.7172 52.2946 64.0177 52.2332 64.3742C51.9898 65.7969 51.3639 66.5105 51.0827 66.5105C50.801 66.5105 50.1756 65.7969 49.9317 64.3742C49.8703 64.0177 49.6308 63.7172 49.297 63.5788C49.1677 63.5249 49.0306 63.498 48.8947 63.498C48.6804 63.498 48.4678 63.5639 48.2874 63.6914C47.1112 64.5247 46.1646 64.5862 45.9662 64.3868C45.7667 64.1869 45.8281 63.2387 46.6596 62.0605C46.8679 61.7644 46.9106 61.3826 46.7725 61.0481C46.6344 60.7135 46.3346 60.4735 45.9783 60.4125C44.5593 60.1681 43.8467 59.5407 43.8467 59.2589C43.8467 58.9766 44.5593 58.3498 45.9783 58.1054C46.3346 58.0438 46.6344 57.8038 46.7725 57.4693C46.9106 57.1347 46.8679 56.7529 46.6596 56.4569C45.8281 55.2786 45.7667 54.3305 45.9657 54.1311C46.1652 53.9311 47.1112 53.9926 48.2874 54.8259C48.5818 55.0347 48.9632 55.0775 49.297 54.9386C49.6308 54.8001 49.8703 54.4996 49.9317 54.1431C50.1756 52.7204 50.801 52.0068 51.0827 52.0068C51.3639 52.0068 51.9898 52.7204 52.2332 54.1431C52.2946 54.4996 52.5341 54.8001 52.8679 54.9386C53.2017 55.0775 53.5832 55.0347 53.878 54.8259C55.0543 53.9926 56.0003 53.9311 56.1992 54.1311C56.3982 54.3305 56.3368 55.2786 55.5059 56.4569C55.2971 56.7524 55.2549 57.1347 55.393 57.4693C55.5311 57.8038 55.8309 58.0438 56.1866 58.1054C57.6062 58.3498 58.3182 58.9766 58.3182 59.2589C58.3182 59.5407 57.6062 60.1681 56.1866 60.4125ZM74.703 61.6122L74.2437 62.7389C70.173 64.0803 68.0804 63.2014 64.9683 61.8935C63.609 61.3216 62.1066 60.6916 60.2409 60.1631C60.3593 59.8764 60.4229 59.5737 60.4229 59.2589C60.4229 58.0389 59.4889 56.9968 57.9526 56.4063C58.0014 56.2976 58.0447 56.1888 58.0852 56.0811C60.5966 56.6283 62.4755 57.4165 64.1532 58.1218C66.2771 59.015 68.1483 59.8017 70.5315 59.8017C71.9658 59.8017 73.5871 59.5144 75.5586 58.7959C75.3618 59.7473 75.0796 60.6899 74.703 61.6122Z" fill="#DF2B23"/>
</g>
<defs>
<filter id="filter0_d" x="0" y="0" width="88" height="92" filterUnits="userSpaceOnUse" color-interpolation-filters="sRGB">
<feFlood flood-opacity="0" result="BackgroundImageFix"/>
<feColorMatrix in="SourceAlpha" type="matrix" values="0 0 0 0 0 0 0 0 0 0 0 0 0 0 0 0 0 0 127 0"/>
<feOffset dy="4"/>
<feGaussianBlur stdDeviation="5"/>
<feColorMatrix type="matrix" values="0 0 0 0 0.87451 0 0 0 0 0.168627 0 0 0 0 0.137255 0 0 0 0.2 0"/>
<feBlend mode="normal" in2="BackgroundImageFix" result="effect1_dropShadow"/>
<feBlend mode="normal" in="SourceGraphic" in2="effect1_dropShadow" result="shape"/>
</filter>
</defs>
</svg>
