<svg width="95" height="100" viewBox="0 0 95 100" fill="none" xmlns="http://www.w3.org/2000/svg">
<g filter="url(#filter0_d)">
<path d="M66.2462 55.3332C66.2462 54.5972 65.6463 53.9999 64.9071 53.9999H56.8719C56.1327 53.9999 55.5328 54.5972 55.5328 55.3332C55.5328 56.0691 56.1327 56.6664 56.8719 56.6664H64.9071C65.6463 56.6666 66.2462 56.0692 66.2462 55.3332Z" fill="#DF2B23"/>
<path d="M60.8893 20.6667V14C60.8893 13.2641 60.2894 12.6667 59.5502 12.6667C58.811 12.6667 58.2111 13.2641 58.2111 14V20.6667C58.2111 24.3427 61.2148 27.3334 64.9071 27.3334H76.9599V52.6667C76.9599 53.4026 77.5598 54 78.299 54C79.0382 54 79.6381 53.4026 79.6381 52.6667V26C79.6381 25.2641 79.0382 24.6667 78.299 24.6667H64.9071C62.6919 24.6667 60.8893 22.872 60.8893 20.6667Z" fill="#DF2B23"/>
<path d="M64.907 38H54.1933C53.4542 38 52.8542 38.5973 52.8542 39.3333C52.8542 40.0692 53.4542 40.6666 54.1933 40.6666H64.907C65.6461 40.6666 66.2461 40.0692 66.2461 39.3333C66.2463 38.5973 65.6463 38 64.907 38Z" fill="#DF2B23"/>
<path d="M50.1759 39.3333C50.1759 38.5973 49.5759 38 48.8367 38H40.8015C40.0624 38 39.4624 38.5973 39.4624 39.3333C39.4624 40.0692 40.0624 40.6666 40.8015 40.6666H48.8367C49.5759 40.6667 50.1759 40.0694 50.1759 39.3333Z" fill="#DF2B23"/>
<path d="M40.8014 45.9999C40.0623 45.9999 39.4623 46.5972 39.4623 47.3332C39.4623 48.0691 40.0623 48.6664 40.8014 48.6664H43.4799C44.219 48.6664 44.819 48.0691 44.819 47.3332C44.819 46.5972 44.219 45.9999 43.4799 45.9999H40.8014Z" fill="#DF2B23"/>
<path d="M40.8014 32.6667H54.1933C54.9325 32.6667 55.5325 32.0693 55.5325 31.3334C55.5325 30.5975 54.9325 30.0001 54.1933 30.0001H40.8014C40.0623 30.0001 39.4623 30.5975 39.4623 31.3334C39.4623 32.0693 40.0623 32.6667 40.8014 32.6667Z" fill="#DF2B23"/>
<path d="M48.8366 48.6667H62.2285C62.9677 48.6667 63.5676 48.0693 63.5676 47.3334C63.5676 46.5975 62.9677 46.0001 62.2285 46.0001H48.8366C48.0974 46.0001 47.4974 46.5975 47.4974 47.3334C47.4974 48.0693 48.0974 48.6667 48.8366 48.6667Z" fill="#DF2B23"/>
<path d="M56.8718 61.9999C56.1326 61.9999 55.5327 62.5972 55.5327 63.3332C55.5327 64.0691 56.1326 64.6664 56.8718 64.6664H59.5502C60.2894 64.6664 60.8894 64.0691 60.8894 63.3332C60.8894 62.5972 60.2894 61.9999 59.5502 61.9999H56.8718Z" fill="#DF2B23"/>
<path d="M51.5151 53.9999H40.8014C40.0623 53.9999 39.4623 54.5972 39.4623 55.3332C39.4623 56.0691 40.0623 56.6664 40.8014 56.6664H51.5151C52.2542 56.6664 52.8542 56.0691 52.8542 55.3332C52.8542 54.5972 52.2542 53.9999 51.5151 53.9999Z" fill="#DF2B23"/>
<path d="M51.5151 61.9999H40.8014C40.0623 61.9999 39.4623 62.5972 39.4623 63.3332C39.4623 64.0691 40.0623 64.6664 40.8014 64.6664H51.5151C52.2542 64.6664 52.8542 64.0691 52.8542 63.3332C52.8542 62.5972 52.2542 61.9999 51.5151 61.9999Z" fill="#DF2B23"/>
<path d="M83.4 60.9213L80.7215 58.2546C78.6631 56.2053 75.5268 56.2093 73.4712 58.2546L55.925 75.724C55.6745 75.9733 55.5327 76.3133 55.5327 76.6666V84.6666C55.5327 85.4025 56.1326 85.9999 56.8718 85.9999H64.907C65.2618 85.9999 65.6033 85.8586 65.8538 85.6093L83.4 68.1399C85.5334 66.0159 85.5334 63.0466 83.4 60.9213ZM71.7395 63.7493L73.8635 65.864L62.2285 77.448L60.1045 75.3333L71.7395 63.7493ZM58.2111 83.3332V77.2185L64.3527 83.3332H58.2111ZM66.2463 81.4479L64.1223 79.3332L75.7573 67.7491L77.8813 69.8638L66.2463 81.4479ZM81.5064 66.2546L79.7747 67.9787L73.6332 61.864L75.3648 60.1399C76.4227 59.0879 77.7647 59.0826 78.8279 60.1399L81.5064 62.8066C82.5897 63.8866 82.5897 65.1759 81.5064 66.2546Z" fill="#DF2B23"/>
<path d="M51.515 83.3331H16.6959C14.4809 83.3331 12.6783 81.5385 12.6783 79.3331V12.6667C12.6783 10.4614 14.4809 8.66671 16.6959 8.66671H58.9958L71.9953 21.6093C72.5189 22.1308 73.3654 22.1308 73.8889 21.6093C74.4126 21.0881 74.4126 20.2453 73.8889 19.724L60.497 6.39062C60.2465 6.14 59.9051 6 59.5502 6H16.6959C13.0038 6 10 8.99062 10 12.6667V79.3333C10 83.0092 13.0038 86 16.696 86H51.5152C52.2544 86 52.8543 85.4027 52.8543 84.6667C52.8543 83.9308 52.2542 83.3331 51.515 83.3331Z" fill="#DF2B23"/>
<path d="M51.5151 69.9999H40.8014C40.0623 69.9999 39.4623 70.5972 39.4623 71.3332C39.4623 72.0691 40.0623 72.6664 40.8014 72.6664H51.5151C52.2542 72.6664 52.8542 72.0691 52.8542 71.3332C52.8542 70.5972 52.2542 69.9999 51.5151 69.9999Z" fill="#DF2B23"/>
<path d="M34.1056 31.3332C34.1056 30.5972 33.5056 29.9999 32.7664 29.9999H24.7312C23.9921 29.9999 23.3921 30.5972 23.3921 31.3332V39.3331C23.3921 40.0691 23.9921 40.6664 24.7312 40.6664H32.7664C33.5056 40.6664 34.1056 40.0691 34.1056 39.3331V31.3332ZM31.4271 37.9999H26.0704V32.6666H31.4271V37.9999Z" fill="#DF2B23"/>
<path d="M24.7311 72.6667H32.7662C33.5054 72.6667 34.1054 72.0693 34.1054 71.3334V63.3334C34.1054 62.5975 33.5054 62.0001 32.7662 62.0001H24.7311C23.9919 62.0001 23.3919 62.5975 23.3919 63.3334V71.3334C23.3919 72.0693 23.9919 72.6667 24.7311 72.6667ZM26.0704 64.6667H31.4271V70H26.0704V64.6667Z" fill="#DF2B23"/>
<path d="M26.4627 56.2757C26.7144 56.5264 27.0559 56.6664 27.4095 56.6664C27.4538 56.6664 27.4966 56.6651 27.5421 56.6596C27.9412 56.6211 28.3014 56.405 28.5238 56.0729L33.8805 48.0729C34.2903 47.4597 34.1242 46.6315 33.5095 46.2236C32.8921 45.8142 32.0632 45.9809 31.652 46.5929L27.2019 53.2397L25.6779 51.7237C25.1543 51.2023 24.3078 51.2023 23.7843 51.7237C23.2607 52.2451 23.2606 53.0878 23.7843 53.609L26.4627 56.2757Z" fill="#DF2B23"/>
</g>
<defs>
<filter id="filter0_d" x="0" y="0" width="95" height="100" filterUnits="userSpaceOnUse" color-interpolation-filters="sRGB">
<feFlood flood-opacity="0" result="BackgroundImageFix"/>
<feColorMatrix in="SourceAlpha" type="matrix" values="0 0 0 0 0 0 0 0 0 0 0 0 0 0 0 0 0 0 127 0"/>
<feOffset dy="4"/>
<feGaussianBlur stdDeviation="5"/>
<feColorMatrix type="matrix" values="0 0 0 0 0.87451 0 0 0 0 0.168627 0 0 0 0 0.137255 0 0 0 0.2 0"/>
<feBlend mode="normal" in2="BackgroundImageFix" result="effect1_dropShadow"/>
<feBlend mode="normal" in="SourceGraphic" in2="effect1_dropShadow" result="shape"/>
</filter>
</defs>
</svg>
