<svg width="98" height="93" viewBox="0 0 98 93" fill="none" xmlns="http://www.w3.org/2000/svg">
<g filter="url(#filter0_d)">
<path d="M64.9145 71.2176C64.2177 71.0403 63.5118 71.4678 63.3389 72.1654L62.039 77.3796C61.8635 78.0796 62.2885 78.7861 62.9854 78.9609C63.0906 78.9882 63.1973 79 63.3013 79C63.8837 79 64.4128 78.6049 64.561 78.0131L65.861 72.7989C66.0351 72.1001 65.6113 71.3924 64.9145 71.2176Z" fill="#DF2B23"/>
<path d="M48.9999 45.1071C49.1689 45.1071 49.338 45.0746 49.4966 45.0081L63.7966 39.0742C64.4596 38.7991 64.7742 38.0365 64.5 37.3717C64.2256 36.7055 63.4625 36.3926 62.8009 36.6651L48.9999 42.393L12.6 27.2898V26.857C12.6 26.1375 12.0176 25.5535 11.3001 25.5535C10.5826 25.5535 10 26.1375 10 26.857V28.1605C10 28.6885 10.3172 29.1643 10.8035 29.3651L48.5034 45.008C48.6619 45.0744 48.831 45.1071 48.9999 45.1071Z" fill="#DF2B23"/>
<path d="M64.4648 58.4623C64.1476 57.817 63.3702 57.5511 62.7241 57.8705C60.2554 59.0946 56.1317 60.518 50.3 60.7123V49.0179C50.3 48.2984 49.7176 47.7143 49.0001 47.7143C48.2825 47.7143 47.7001 48.2984 47.7001 49.0179V60.7006C31.5581 60.1844 26.349 50.3788 25.6001 48.7467V39.8929C25.6001 39.1734 25.0177 38.5894 24.3002 38.5894C23.5826 38.5894 23.0002 39.1734 23.0002 39.8929V49.0179C23.0002 49.1835 23.0315 49.3477 23.0925 49.5027C23.3188 50.0672 28.8516 63.3571 49.0002 63.3571C56.0423 63.3571 60.9772 61.6442 63.8761 60.2076C64.5205 59.8883 64.7845 59.1076 64.4648 58.4623Z" fill="#DF2B23"/>
<path d="M68.4999 72.4822C67.781 72.4822 67.1999 73.0662 67.1999 73.7857V77.6964C67.1999 78.4159 67.781 79 68.4999 79C69.2188 79 69.7998 78.4159 69.7998 77.6964V73.7857C69.7998 73.0662 69.2188 72.4822 68.4999 72.4822Z" fill="#DF2B23"/>
<path d="M86.6999 25.5534C85.981 25.5534 85.4 26.1374 85.4 26.857V27.2871L69.8 33.7255V31.3699L87.1965 24.1506C87.6827 23.9499 88 23.474 88 22.9461C88 22.4181 87.6828 21.9436 87.1979 21.7415L49.4966 6.09876C49.178 5.96708 48.8218 5.96708 48.5034 6.09876L10.8035 21.7417C10.3172 21.9438 10 22.4183 10 22.9462C10 23.4742 10.3172 23.95 10.8035 24.1508L48.5034 39.7937C48.662 39.8601 48.831 39.8928 49.0001 39.8928C49.1692 39.8928 49.3381 39.8603 49.4967 39.7937L63.1286 34.1375C63.7929 33.8637 64.1075 33.1011 63.8332 32.4349C63.5588 31.7701 62.7983 31.4559 62.1353 31.7296L48.9999 37.1787L14.6995 22.9462L48.9999 8.71376L83.3004 22.9462L68.3751 29.1395L54.0791 23.787C54.1545 23.5159 54.2 23.2369 54.2 22.9462C54.2 20.7536 51.9159 19.0355 49.0001 19.0355C46.0842 19.0355 43.8001 20.7536 43.8001 22.9462C43.8001 25.1388 46.0842 26.857 49.0001 26.857C50.3014 26.857 51.4623 26.501 52.3644 25.9275L67.1999 31.4822V35.6589V35.6602V63.5972C65.6907 64.1382 64.5999 65.5708 64.5999 67.2681C64.5999 69.4242 66.3497 71.1788 68.4999 71.1788C70.6501 71.1788 72.3999 69.4242 72.3999 67.2681C72.3999 65.5709 71.3093 64.1383 69.7998 63.5972V56.1981C73.5321 53.3733 74.8698 49.6112 74.9283 49.4443C74.9751 49.3075 74.9998 49.1628 74.9998 49.0181V39.8931C74.9998 39.1736 74.4187 38.5896 73.6998 38.5896C72.9809 38.5896 72.3999 39.1736 72.3999 39.8931V48.7771C72.175 49.3298 71.3937 51.0335 69.7998 52.7151V36.5452L87.1952 29.3664C87.6827 29.1657 87.9999 28.6886 87.9999 28.1606V26.8571C87.9999 26.1374 87.4188 25.5534 86.6999 25.5534ZM48.9999 24.2498C47.4127 24.2498 46.3999 23.478 46.3999 22.9462C46.3999 22.4143 47.4125 21.6427 48.9999 21.6427C50.5873 21.6427 51.6 22.4145 51.6 22.9462C51.6 23.4781 50.5872 24.2498 48.9999 24.2498ZM68.4999 68.5715C67.7824 68.5715 67.1999 67.9863 67.1999 67.268C67.1999 66.5497 67.7824 65.9644 68.4999 65.9644C69.2174 65.9644 69.7998 66.5497 69.7998 67.268C69.7998 67.9861 69.2174 68.5715 68.4999 68.5715Z" fill="#DF2B23"/>
<path d="M73.6608 72.1654C73.4867 71.468 72.7794 71.0417 72.0853 71.2176C71.3885 71.3922 70.9647 72.1002 71.1389 72.7989L72.4389 78.0131C72.5871 78.6049 73.1162 79 73.6986 79C73.8027 79 73.9091 78.9882 74.0146 78.9609C74.7114 78.7863 75.1352 78.0796 74.9609 77.3796L73.6608 72.1654Z" fill="#DF2B23"/>
</g>
<defs>
<filter id="filter0_d" x="0" y="0" width="98" height="93" filterUnits="userSpaceOnUse" color-interpolation-filters="sRGB">
<feFlood flood-opacity="0" result="BackgroundImageFix"/>
<feColorMatrix in="SourceAlpha" type="matrix" values="0 0 0 0 0 0 0 0 0 0 0 0 0 0 0 0 0 0 127 0"/>
<feOffset dy="4"/>
<feGaussianBlur stdDeviation="5"/>
<feColorMatrix type="matrix" values="0 0 0 0 0.87451 0 0 0 0 0.168627 0 0 0 0 0.137255 0 0 0 0.2 0"/>
<feBlend mode="normal" in2="BackgroundImageFix" result="effect1_dropShadow"/>
<feBlend mode="normal" in="SourceGraphic" in2="effect1_dropShadow" result="shape"/>
</filter>
</defs>
</svg>
