<svg width="92" height="92" viewBox="0 0 92 92" fill="none" xmlns="http://www.w3.org/2000/svg">
<g filter="url(#filter0_d)">
<path d="M51.5656 6H10V47.5657H51.5656V6ZM49.4518 45.4519H12.1138V8.11377H49.4518V45.4519Z" fill="#DF2B23"/>
<path d="M54.0315 36.4343V38.5481H79.8861V75.8862H42.548V50.0316H40.4343V78H81.9999V36.4343H54.0315Z" fill="#DF2B23"/>
<path d="M30.7817 29.4295C29.9786 28.3875 29.3315 27.2421 28.8503 26.01L28.4653 25.0234L22.5667 27.3416L22.9529 28.3254C23.5851 29.936 24.4322 31.4741 25.472 32.8973C25.6033 33.0764 25.7401 33.2566 25.8818 33.4362C25.2534 33.7449 24.6003 34.007 23.9301 34.2201L19.7982 35.533L21.718 41.576L25.8505 40.2631C27.6001 39.7072 29.2563 38.9233 30.7828 37.9302C32.3099 38.9233 33.9661 39.7067 35.7151 40.2631L39.8482 41.5765L41.7669 35.5324L37.635 34.2206C36.9659 34.0081 36.3133 33.7455 35.6838 33.4362C35.8255 33.2566 35.9623 33.0764 36.093 32.8968C38.1804 30.0436 39.4785 26.7192 39.8767 23.2288H43.1116V16.8886H34.3759V12.2595H27.4715V16.8881H18.454V23.2288H33.4778C33.0993 25.4821 32.1682 27.6228 30.7817 29.4295ZM20.5677 21.1151V19.0018H29.5853V14.3733H32.2621V19.0018H40.9979V21.1151H37.9201L37.8558 22.1038C37.6328 25.5519 36.4336 28.8522 34.3874 31.6487C34.0501 32.1102 33.67 32.5787 33.258 33.0402L32.4121 33.9888L33.4986 34.6475C34.5951 35.3121 35.7711 35.8461 36.995 36.235L39.1126 36.9073L38.4732 38.9222L36.3556 38.2493C34.5764 37.6835 32.9065 36.8563 31.3909 35.79L30.7828 35.3621L30.1747 35.79C28.6597 36.8563 26.9892 37.6835 25.21 38.2488L23.0924 38.9217L22.4524 36.9073L24.5706 36.2344C25.7967 35.8444 26.9728 35.311 28.067 34.648L29.1541 33.9888L28.3076 33.0407C27.8962 32.5793 27.5155 32.1113 27.1782 31.6498C26.4575 30.6633 25.8401 29.6157 25.3353 28.5248L27.2991 27.753C27.989 29.2252 28.8959 30.5776 30.0044 31.7844L30.7823 32.632L31.5606 31.7844C33.9535 29.1796 35.4333 25.7969 35.7278 22.2593L35.8228 21.1151H20.5677Z" fill="#DF2B23"/>
<path d="M59.033 67.0099H63.4012V71.3775H70.305V55.2446C70.305 50.2338 66.2285 46.1567 61.2171 46.1567C56.2062 46.1567 52.1292 50.2338 52.1292 55.2446V71.3775H59.033V67.0099ZM56.9198 69.2643H54.2424V55.2446C54.2424 51.3989 57.3713 48.27 61.2171 48.27C65.0628 48.27 68.1917 51.3989 68.1917 55.2446V69.2643H65.5144V64.8961H56.9198V69.2643Z" fill="#DF2B23"/>
<path d="M65.5144 55.2446C65.5144 52.8754 63.5868 50.9473 61.2171 50.9473C58.8473 50.9473 56.9198 52.8754 56.9198 55.2446V61.9374H65.5144V55.2446ZM63.4012 59.8237H59.033V55.2446C59.033 54.0405 60.013 53.0605 61.2171 53.0605C62.4212 53.0605 63.4012 54.0405 63.4012 55.2446V59.8237Z" fill="#DF2B23"/>
<path d="M70.3049 18.1877V29.3036L66.4729 25.4716L64.9788 26.9663L71.3618 33.3494L77.7448 26.9663L76.2507 25.4716L72.4187 29.3036V18.1877C72.4187 14.4974 69.4161 11.4954 65.7258 11.4954H60.0898V13.6086H65.7258C68.251 13.6086 70.3049 15.663 70.3049 18.1877Z" fill="#DF2B23"/>
<path d="M55.8629 11.4954H57.9767V13.6086H55.8629V11.4954Z" fill="#DF2B23"/>
<path d="M21.6949 65.8123V54.6964L25.527 58.5284L27.0211 57.0337L20.638 50.6506L14.255 57.0337L15.7491 58.5284L19.5812 54.6964V65.8123C19.5812 69.5026 22.5837 72.5046 26.274 72.5046H31.91V70.3914H26.274C23.7488 70.3914 21.6949 68.337 21.6949 65.8123Z" fill="#DF2B23"/>
<path d="M34.0232 70.3914H36.137V72.5046H34.0232V70.3914Z" fill="#DF2B23"/>
<path d="M41.4911 10.3682H47.1271V12.4814H41.4911V10.3682Z" fill="#DF2B23"/>
<path d="M37.2642 10.3682H39.3774V12.4814H37.2642V10.3682Z" fill="#DF2B23"/>
<path d="M77.7729 47.3542V40.6614H71.08V42.7751H75.6591V47.3542H77.7729Z" fill="#DF2B23"/>
</g>
<defs>
<filter id="filter0_d" x="0" y="0" width="91.9999" height="92" filterUnits="userSpaceOnUse" color-interpolation-filters="sRGB">
<feFlood flood-opacity="0" result="BackgroundImageFix"/>
<feColorMatrix in="SourceAlpha" type="matrix" values="0 0 0 0 0 0 0 0 0 0 0 0 0 0 0 0 0 0 127 0"/>
<feOffset dy="4"/>
<feGaussianBlur stdDeviation="5"/>
<feColorMatrix type="matrix" values="0 0 0 0 0.87451 0 0 0 0 0.168627 0 0 0 0 0.137255 0 0 0 0.2 0"/>
<feBlend mode="normal" in2="BackgroundImageFix" result="effect1_dropShadow"/>
<feBlend mode="normal" in="SourceGraphic" in2="effect1_dropShadow" result="shape"/>
</filter>
</defs>
</svg>
