<svg width="33" height="32" viewBox="0 0 33 32" fill="none" xmlns="http://www.w3.org/2000/svg">
<path fill-rule="evenodd" clip-rule="evenodd" d="M0.652191 16C0.652191 7.16357 7.89349 0 16.8261 0C25.7587 0 33 7.16357 33 16C33 24.8364 25.7587 32 16.8261 32C7.89349 32 0.652191 24.8364 0.652191 16ZM13.8663 15.5425V17.2798H16.7807C16.6632 18.0254 15.8998 19.4658 13.8663 19.4658C12.1117 19.4658 10.6802 18.0322 10.6802 16.2666C10.6802 14.5005 12.1117 13.0669 13.8663 13.0669C14.8647 13.0669 15.5327 13.4868 15.9145 13.8486L17.3093 12.5244C16.4137 11.6992 15.2538 11.1997 13.8663 11.1997C11.0252 11.1997 8.72745 13.4653 8.72745 16.2666C8.72745 19.0674 11.0252 21.333 13.8663 21.333C16.8321 21.333 18.7995 19.2773 18.7995 16.3823C18.7995 16.2119 18.7899 16.062 18.7746 15.9224C18.76 15.7896 18.7403 15.666 18.7188 15.5425H13.8663ZM23.4098 15.543H24.878V16.9902H23.4098V18.438H21.9416V16.9902H20.4733V15.543H21.9416V14.0952H23.4098V15.543Z" fill="white"/>
</svg>
