<svg width="33" height="32" viewBox="0 0 33 32" fill="none" xmlns="http://www.w3.org/2000/svg">
<path fill-rule="evenodd" clip-rule="evenodd" d="M16.5652 0C7.6326 0 0.391296 7.16357 0.391296 16C0.391296 24.8364 7.6326 32 16.5652 32C25.4978 32 32.7391 24.8364 32.7391 16C32.7391 7.16357 25.4978 0 16.5652 0ZM13.0092 7.51855C13.9293 7.47705 14.2233 7.4668 16.566 7.4668C18.9068 7.4668 19.1997 7.47705 20.1198 7.51855C21.0382 7.56006 21.6654 7.70361 22.2153 7.91504C22.7832 8.13281 23.263 8.42432 23.7428 8.89893C24.2227 9.37305 24.5174 9.84912 24.7384 10.4106C24.9505 10.9531 25.0961 11.5732 25.1392 12.4814C25.1805 13.3916 25.1913 13.6826 25.1913 16C25.1913 18.3179 25.1805 18.6079 25.1392 19.5181C25.0961 20.4263 24.9505 21.0464 24.7384 21.5894C24.5174 22.1504 24.2227 22.6265 23.7428 23.1006C23.2635 23.5752 22.783 23.8677 22.2158 24.0854C21.667 24.2969 21.0394 24.4404 20.1211 24.4819C19.201 24.5234 18.9079 24.5337 16.565 24.5337C14.2224 24.5337 13.9286 24.5234 13.0085 24.4819C12.0903 24.4404 11.4633 24.2969 10.9145 24.0854C10.3475 23.8677 9.86621 23.5752 9.3869 23.1006C8.90726 22.6265 8.61252 22.1504 8.39203 21.5889C8.17889 21.0464 8.03351 20.4263 7.99127 19.5181C7.94958 18.6079 7.93915 18.3179 7.93915 16C7.93915 13.6826 7.94992 13.3916 7.99109 12.4814C8.03241 11.5732 8.17798 10.9531 8.39185 10.4102C8.61288 9.84912 8.90762 9.37305 9.38745 8.89893C9.86691 8.42432 10.3482 8.13281 10.9155 7.91504C11.464 7.70361 12.0909 7.56006 13.0092 7.51855Z" fill="white"/>
<path fill-rule="evenodd" clip-rule="evenodd" d="M15.7922 9.00439H16.566C18.8692 9.00439 19.1422 9.0127 20.0517 9.05371C20.8928 9.0918 21.3492 9.23047 21.6533 9.34766C22.0559 9.50195 22.3429 9.68701 22.6446 9.98584C22.9465 10.2842 23.1334 10.5688 23.2901 10.9673C23.4082 11.2676 23.5489 11.7192 23.5872 12.5513C23.6285 13.4507 23.6375 13.7207 23.6375 15.998C23.6375 18.2754 23.6285 18.5459 23.5872 19.4453C23.5487 20.2773 23.4082 20.729 23.2901 21.0293C23.1338 21.4277 22.9465 21.7114 22.6446 22.0098C22.3427 22.3086 22.056 22.4932 21.6533 22.6479C21.3496 22.7651 20.8928 22.9038 20.0517 22.9419C19.1424 22.9829 18.8692 22.9917 16.566 22.9917C14.2627 22.9917 13.9897 22.9829 13.0803 22.9419C12.2393 22.9038 11.7828 22.7646 11.4785 22.6479C11.076 22.4932 10.7885 22.3081 10.4865 22.0093C10.1846 21.7109 9.99774 21.4272 9.84103 21.0288C9.72296 20.728 9.58224 20.2769 9.54395 19.4448C9.50262 18.5449 9.49435 18.2749 9.49435 15.9961C9.49435 13.7173 9.50262 13.4487 9.54395 12.5488C9.58243 11.7168 9.72296 11.2656 9.84103 10.9644C9.99738 10.5664 10.1846 10.2817 10.4865 9.9834C10.7885 9.68457 11.076 9.49951 11.4785 9.34473C11.7826 9.22754 12.2393 9.08887 13.0803 9.05029C13.8761 9.01465 14.1845 9.00439 15.7922 9.00439ZM21.1706 10.4219C20.5991 10.4219 20.1355 10.8799 20.1355 11.4453C20.1355 12.0107 20.5991 12.4692 21.1706 12.4692C21.7421 12.4692 22.2057 12.0107 22.2057 11.4453C22.2057 10.8799 21.7421 10.4214 21.1706 10.4219ZM12.1361 15.9995C12.1361 13.5791 14.1196 11.6172 16.566 11.6172C19.0123 11.6172 20.9952 13.5791 20.9952 15.9995C20.9952 18.4194 19.0125 20.3809 16.566 20.3809C14.1196 20.3809 12.1361 18.4194 12.1361 15.9995Z" fill="white"/>
<path fill-rule="evenodd" clip-rule="evenodd" d="M16.566 13.1558C18.154 13.1558 19.4414 14.4292 19.4414 16.0002C19.4414 17.5711 18.154 18.8447 16.566 18.8447C14.9779 18.8447 13.6906 17.5711 13.6906 16.0002C13.6906 14.4292 14.9779 13.1558 16.566 13.1558V13.1558Z" fill="white"/>
</svg>
