<svg width="33" height="32" viewBox="0 0 33 32" fill="none" xmlns="http://www.w3.org/2000/svg">
<path fill-rule="evenodd" clip-rule="evenodd" d="M0.260864 16C0.260864 7.16357 7.50217 0 16.4348 0C25.3674 0 32.6087 7.16357 32.6087 16C32.6087 24.8364 25.3674 32 16.4348 32C7.50217 32 0.260864 24.8364 0.260864 16ZM16.4238 16.2568C18.8088 16.2568 20.7476 14.4053 20.7476 12.1289C20.7476 9.85205 18.8088 8 16.4238 8C14.0393 8 12.1 9.85205 12.1 12.1289C12.1 14.4053 14.0393 16.2568 16.4238 16.2568ZM20.695 18.6333C19.9132 19.1025 19.0643 19.4351 18.1842 19.6265L20.6013 21.9346C21.0965 22.4067 21.0965 23.1729 20.6013 23.645C20.1067 24.1177 19.3049 24.1177 18.8108 23.645L16.4343 21.377L14.0599 23.645C13.8123 23.8813 13.4879 23.999 13.1635 23.999C12.8396 23.999 12.5157 23.8813 12.2681 23.645C11.7735 23.1729 11.7735 22.4072 12.2676 21.9346L14.685 19.6265C13.8048 19.4351 12.956 19.1021 12.1742 18.6333C11.5825 18.2773 11.4048 17.5308 11.7776 16.9653C12.1494 16.3994 12.9312 16.229 13.5239 16.585C15.2939 17.6484 17.5742 17.6484 19.3453 16.585C19.938 16.229 20.7195 16.3994 21.0921 16.9653C21.4649 17.5303 21.2867 18.2773 20.695 18.6333Z" fill="white"/>
<path fill-rule="evenodd" clip-rule="evenodd" d="M16.4238 10.4199C17.411 10.4199 18.214 11.1865 18.214 12.1292C18.214 13.0712 17.411 13.8382 16.4238 13.8382C15.4373 13.8382 14.6335 13.0712 14.6335 12.1292C14.6335 11.1865 15.4373 10.4199 16.4238 10.4199Z" fill="white"/>
</svg>
