<svg width="33" height="32" viewBox="0 0 33 32" fill="none" xmlns="http://www.w3.org/2000/svg">
<path fill-rule="evenodd" clip-rule="evenodd" d="M16.6956 0C7.76303 0 0.521729 7.16357 0.521729 16C0.521729 24.8364 7.76303 32 16.6956 32C25.6282 32 32.8695 24.8364 32.8695 16C32.8695 7.16357 25.6282 0 16.6956 0ZM16.2452 13.5586L16.2112 13.0049C16.1094 11.5703 17.0032 10.2593 18.4174 9.75098C18.9378 9.57031 19.8202 9.54785 20.3972 9.70605C20.6234 9.77344 21.0533 9.99951 21.3588 10.2031L21.9132 10.5757L22.5241 10.3838C22.8635 10.2822 23.316 10.1128 23.5197 9.99951C23.712 9.89795 23.8817 9.84131 23.8817 9.87549C23.8817 10.0674 23.4631 10.7227 23.1124 11.0845C22.6372 11.5928 22.773 11.6382 23.7346 11.2988C24.3116 11.1069 24.3229 11.1069 24.2098 11.3218C24.1419 11.4346 23.7912 11.8301 23.4178 12.1914C22.7843 12.813 22.7504 12.8809 22.7504 13.4004C22.7504 14.2026 22.3657 15.875 21.981 16.79C21.2683 18.5073 19.741 20.2812 18.2137 21.1738C16.0642 22.4282 13.2019 22.7446 10.7922 22.0103C9.98892 21.7617 8.6087 21.1289 8.6087 21.0161C8.6087 20.9819 9.02728 20.937 9.53641 20.9253C10.5999 20.9028 11.6633 20.6089 12.5684 20.0894L13.1793 19.728L12.4778 19.4907C11.4823 19.1514 10.5885 18.3721 10.3623 17.6377C10.2944 17.4004 10.317 17.3892 10.9506 17.3892L11.6067 17.3779L11.0524 17.1177C10.3962 16.79 9.7966 16.2363 9.50244 15.6714C9.28751 15.2646 9.01599 14.2368 9.09518 14.1577C9.1178 14.1235 9.35538 14.1914 9.62689 14.2817C10.4075 14.5645 10.5093 14.4966 10.0568 14.022C9.20831 13.1631 8.94809 11.8867 9.35538 10.6777L9.5477 10.1353L10.2944 10.8696C11.8217 12.3496 13.6205 13.231 15.6795 13.4907L16.2452 13.5586Z" fill="white"/>
</svg>
