<svg width="33" height="32" viewBox="0 0 33 32" fill="none" xmlns="http://www.w3.org/2000/svg">
<path fill-rule="evenodd" clip-rule="evenodd" d="M16.3043 0C7.37173 0 0.130432 7.16357 0.130432 16C0.130432 24.8364 7.37173 32 16.3043 32C25.237 32 32.4783 24.8364 32.4783 16C32.4783 7.16357 25.237 0 16.3043 0ZM17.6213 21.0503C17.4618 21.2168 17.1504 21.2505 17.1504 21.2505H16.1193C16.1193 21.2505 13.8444 21.3828 11.8403 19.3574C9.65489 17.1479 7.72511 12.7632 7.72511 12.7632C7.72511 12.7632 7.61374 12.4756 7.73441 12.3374C7.87025 12.1807 8.24068 12.1709 8.24068 12.1709L10.7054 12.1553C10.7054 12.1553 10.9375 12.1924 11.1037 12.311C11.2413 12.4092 11.318 12.5918 11.318 12.5918C11.318 12.5918 11.7163 13.5703 12.2437 14.4551C13.274 16.1831 13.7533 16.561 14.1026 16.376C14.6122 16.1064 14.4595 13.9331 14.4595 13.9331C14.4595 13.9331 14.4688 13.145 14.203 12.7935C13.9971 12.5215 13.609 12.4419 13.4377 12.4199C13.2984 12.4019 13.5263 12.0889 13.8216 11.9487C14.2654 11.7383 15.0485 11.7261 15.9742 11.7349C16.6956 11.7422 16.9032 11.7856 17.185 11.8521C17.8391 12.0054 17.8187 12.4966 17.7746 13.5571C17.7614 13.874 17.7461 14.2417 17.7461 14.6665C17.7461 15.2573 17.6364 16.0889 18.0761 16.3652C18.2651 16.4834 18.7266 16.3823 19.8818 14.478C20.4294 13.5752 20.8395 12.5142 20.8395 12.5142C20.8395 12.5142 20.8652 12.4604 20.9102 12.3979C20.9497 12.3433 21.004 12.2817 21.069 12.2437C21.2116 12.1611 21.404 12.1865 21.404 12.1865L23.9979 12.1709C23.9979 12.1709 24.7776 12.0801 24.9033 12.4224C25.0358 12.7803 24.6122 13.6177 23.5524 14.9893C22.5476 16.29 22.0584 16.7695 22.1026 17.1929C22.135 17.5029 22.453 17.7832 23.0638 18.3335C24.3371 19.4814 24.6789 20.0854 24.7611 20.231L24.7767 20.2578C25.348 21.1782 24.143 21.2505 24.143 21.2505L21.8386 21.2812C21.8386 21.2812 21.3441 21.3765 20.6927 20.9424C20.3516 20.7148 20.0182 20.3438 19.7007 19.9902C19.2156 19.4502 18.7674 18.9512 18.3849 19.0693C17.7428 19.2676 17.7622 20.6104 17.7622 20.6104C17.7622 20.6104 17.7672 20.8979 17.6213 21.0503Z" fill="white"/>
</svg>
