<svg width="50" height="48" viewBox="0 0 50 48" fill="none" xmlns="http://www.w3.org/2000/svg">
<path d="M47.3181 5.79283C48.7927 7.86928 49.3264 10.679 48.8619 13.982C48.407 17.2156 47.0077 20.8523 44.8072 24.5352C49.8087 32.9034 50.4105 40.4816 46.3462 44.4127C44.5529 46.1473 42.0252 47.0042 39.0177 47.0042C35.209 47.0042 30.63 45.6299 25.7956 42.9276C20.9612 45.6299 16.3824 47.0042 12.5736 47.0042C9.56596 47.0042 7.03955 46.1473 5.24622 44.4127C1.18081 40.4827 1.78136 32.9057 6.78169 24.5364C5.7967 22.8873 4.97161 21.2462 4.31858 19.6409C4.2935 19.6409 4.26965 19.642 4.24457 19.642C1.9044 19.642 0 17.8011 0 15.5365C0 13.8481 1.06026 12.3952 2.5694 11.7658C2.56585 8.81285 3.48038 6.36798 5.24622 4.65996C9.30934 0.727589 17.143 1.30847 25.7956 6.14505C30.8628 3.31333 35.7593 1.89288 39.7579 2.08571C40.4875 0.841876 41.8689 0 43.4509 0C45.791 0 47.6954 1.84203 47.6954 4.10556C47.6954 4.70728 47.5593 5.2778 47.3181 5.79283ZM46.4955 13.6714C46.8393 11.2254 46.554 9.15589 45.6705 7.60375C45.0234 7.98829 44.264 8.21121 43.4509 8.21121C41.205 8.21121 39.3628 6.51468 39.217 4.37822C36.0458 4.32626 32.1965 5.42218 28.1203 7.53679C31.0311 9.39382 33.8406 11.625 36.4924 14.1899C39.1443 16.7549 41.4498 19.4723 43.3684 22.2867C45.0519 19.2459 46.1266 16.2964 46.4955 13.6714ZM45.3075 4.10556C45.3075 3.11587 44.4741 2.30974 43.4509 2.30974C42.4277 2.30974 41.5943 3.11587 41.5943 4.10556C41.5943 5.09525 42.4277 5.90138 43.4509 5.90138C44.4741 5.90138 45.3075 5.09534 45.3075 4.10556ZM44.6579 42.7797C47.7109 39.8256 47.1736 33.6644 43.3684 26.786C41.4498 29.6004 39.1442 32.3179 36.4924 34.8828C33.8406 37.4478 31.0324 39.6778 28.1215 41.5348C35.2328 45.2141 41.6037 45.7339 44.6579 42.7797ZM42.0241 24.5363C40.0755 21.5036 37.6494 18.5749 34.8041 15.8228C31.9589 13.072 28.9322 10.7241 25.7956 8.83822C22.6591 10.7242 19.6324 13.072 16.7872 15.8228C13.9431 18.5749 11.5157 21.5025 9.56605 24.5363C11.5158 27.5701 13.9431 30.4977 16.7872 33.2498C19.6324 36.0006 22.6591 38.3485 25.7956 40.2344C28.9322 38.3484 31.9589 36.0006 34.8041 33.2498C37.6494 30.4977 40.0755 27.569 42.0241 24.5363ZM15.0989 14.1898C17.7495 11.6248 20.5589 9.39484 23.4697 7.5378C16.3573 3.85846 9.98755 3.33879 6.93451 6.29286C5.68084 7.50659 5.00627 9.28972 4.95849 11.4909C6.9596 11.8201 8.48904 13.5085 8.48904 15.5364C8.48904 16.9568 7.74046 18.2099 6.60494 18.9479C7.05861 20.0439 7.59836 21.1606 8.22161 22.2878C10.1415 19.4723 12.4471 16.7548 15.0989 14.1898ZM23.4698 41.5348C20.559 39.6778 17.7507 37.4478 15.099 34.8828C12.4471 32.3178 10.1416 29.6015 8.2217 26.786C4.41769 33.6644 3.88042 39.8268 6.93461 42.7797C9.98755 45.7339 16.3573 45.2141 23.4698 41.5348ZM6.10119 15.5365C6.10119 14.5468 5.26901 13.7406 4.24457 13.7406C3.22137 13.7406 2.38795 14.5468 2.38795 15.5365C2.38795 16.5274 3.22137 17.3323 4.24457 17.3323C5.26901 17.3323 6.10119 16.5274 6.10119 15.5365Z" fill="#D9CEC2"/>
<path d="M43.632 0C46.0636 0 48.0442 1.9781 48.0442 4.40665C48.0442 6.83519 46.0636 8.81329 43.632 8.81329C41.2004 8.81329 39.2198 6.83519 39.2198 4.40665C39.2198 1.9781 41.2002 0 43.632 0Z" fill="#F3CD7B"/>
<path d="M25.7957 18.4317C29.276 18.4317 32.1069 21.1699 32.1069 24.5363C32.1069 27.9016 29.276 30.6409 25.7957 30.6409C22.3164 30.6409 19.4855 27.9016 19.4855 24.5363C19.4855 21.1699 22.3164 18.4317 25.7957 18.4317ZM29.7191 24.5363C29.7191 22.4436 27.9592 20.7414 25.7957 20.7414C23.6334 20.7414 21.8735 22.4436 21.8735 24.5363C21.8735 26.629 23.6334 28.3312 25.7957 28.3312C27.9592 28.3312 29.7191 26.629 29.7191 24.5363Z" fill="#DF2B23"/>
<path d="M25.7956 20.7415C27.9591 20.7415 29.7191 22.4437 29.7191 24.5364C29.7191 26.629 27.9591 28.3313 25.7956 28.3313C23.6334 28.3313 21.8735 26.629 21.8735 24.5364C21.8735 22.4437 23.6334 20.7415 25.7956 20.7415Z" fill="#DF2B23"/>
<path d="M4.41223 10.7718C6.8468 10.7718 8.82445 12.7499 8.82445 15.1785C8.82445 17.6099 6.8468 19.5851 4.41223 19.5851C1.98061 19.5851 0 17.6099 0 15.1785C0 12.7499 1.98061 10.7718 4.41223 10.7718Z" fill="#F3CD7B"/>
</svg>
