<svg width="51" height="48" viewBox="0 0 51 48" fill="none" xmlns="http://www.w3.org/2000/svg">
<path d="M48.728 5.91555C50.2465 8.03599 50.7961 10.9053 50.3178 14.2782C49.8493 17.5803 48.4083 21.2941 46.1422 25.055C51.2928 33.6004 51.9125 41.3392 47.7271 45.3536C45.8804 47.125 43.2774 48 40.1802 48C36.258 48 31.5427 46.5966 26.5642 43.837C21.5858 46.5966 16.8705 48 12.9482 48C9.85098 48 7.2493 47.125 5.40254 45.3536C1.21599 41.3403 1.83444 33.6028 6.98376 25.0562C5.96941 23.3721 5.11974 21.6963 4.44726 20.057C4.42142 20.057 4.39687 20.0581 4.37104 20.0581C1.96114 20.0581 0 18.1782 0 15.8656C0 14.1415 1.09185 12.6578 2.64595 12.0151C2.6423 8.99955 3.58407 6.50288 5.40254 4.75868C9.58672 0.743003 17.6537 1.33619 26.5642 6.27523C31.7824 3.38352 36.8247 1.93298 40.9425 2.12989C41.6938 0.859712 43.1164 0 44.7455 0C47.1554 0 49.1166 1.88106 49.1166 4.19254C49.1165 4.80701 48.9763 5.38961 48.728 5.91555ZM47.8808 13.961C48.2349 11.4632 47.9411 9.34986 47.0313 7.76483C46.3649 8.15752 45.5829 8.38517 44.7455 8.38517C42.4327 8.38517 40.5356 6.65269 40.3855 4.47097C37.1198 4.41792 33.1558 5.53705 28.9582 7.69645C31.9557 9.59283 34.8489 11.8713 37.5797 14.4905C40.3106 17.1099 42.6848 19.8848 44.6606 22.7588C46.3943 19.6536 47.5009 16.6416 47.8808 13.961ZM46.6575 4.19254C46.6575 3.18188 45.7992 2.35867 44.7455 2.35867C43.6918 2.35867 42.8336 3.18188 42.8336 4.19254C42.8336 5.20319 43.6918 6.0264 44.7455 6.0264C45.7992 6.0264 46.6575 5.20329 46.6575 4.19254ZM45.9885 43.686C49.1324 40.6693 48.5792 34.3776 44.6606 27.3535C42.6848 30.2275 40.3105 33.0025 37.5797 35.6218C34.8489 38.2411 31.957 40.5183 28.9594 42.4147C36.2826 46.172 42.8433 46.7028 45.9885 43.686ZM43.2762 25.0561C41.2696 21.9592 38.7712 18.9684 35.8411 16.158C32.9111 13.3489 29.7942 10.9513 26.5642 9.02546C23.3343 10.9513 20.2174 13.3489 17.2873 16.158C14.3586 18.9684 11.8589 21.958 9.85108 25.0561C11.859 28.1542 14.3586 31.1438 17.2873 33.9542C20.2174 36.7633 23.3343 39.161 26.5642 41.0867C29.7942 39.1609 32.9111 36.7633 35.8411 33.9542C38.7712 31.1438 41.2696 28.153 43.2762 25.0561ZM15.5487 14.4904C18.2783 11.8711 21.1715 9.59387 24.169 7.69749C16.8447 3.9402 10.2851 3.40953 7.14113 6.42618C5.8501 7.66562 5.15543 9.48653 5.10623 11.7344C7.16697 12.0705 8.74197 13.7946 8.74197 15.8655C8.74197 17.316 7.97109 18.5957 6.80174 19.3493C7.26892 20.4685 7.82476 21.6088 8.46657 22.7599C10.4437 19.8848 12.818 17.1098 15.5487 14.4904ZM24.1691 42.4147C21.1716 40.5183 18.2796 38.2411 15.5488 35.6218C12.818 33.0024 10.4438 30.2287 8.46667 27.3535C4.54931 34.3776 3.99604 40.6705 7.14123 43.686C10.2851 46.7028 16.8447 46.172 24.1691 42.4147ZM6.28298 15.8656C6.28298 14.8549 5.42601 14.0317 4.37104 14.0317C3.31735 14.0317 2.4591 14.8549 2.4591 15.8656C2.4591 16.8775 3.31735 17.6995 4.37104 17.6995C5.42601 17.6995 6.28298 16.8775 6.28298 15.8656Z" fill="#D9CEC2"/>
<path d="M44.932 0C47.4361 0 49.4757 2.02001 49.4757 4.5C49.4757 6.97999 47.4361 9 44.932 9C42.428 9 40.3884 6.97999 40.3884 4.5C40.3884 2.02001 42.4277 0 44.932 0Z" fill="#F3CD7B"/>
<path d="M26.5642 18.8223C30.1483 18.8223 33.0636 21.6185 33.0636 25.0562C33.0636 28.4927 30.1483 31.2901 26.5642 31.2901C22.9814 31.2901 20.0661 28.4927 20.0661 25.0562C20.0661 21.6185 22.9814 18.8223 26.5642 18.8223ZM30.6046 25.0562C30.6046 22.9192 28.7922 21.1808 26.5642 21.1808C24.3376 21.1808 22.5252 22.9192 22.5252 25.0562C22.5252 27.1932 24.3376 28.9315 26.5642 28.9315C28.7922 28.9315 30.6046 27.1932 30.6046 25.0562Z" fill="#DF2B23"/>
<path d="M26.5642 21.1807C28.7922 21.1807 30.6045 22.919 30.6045 25.056C30.6045 27.193 28.7922 28.9313 26.5642 28.9313C24.3375 28.9313 22.5252 27.193 22.5252 25.056C22.5252 22.919 24.3375 21.1807 26.5642 21.1807Z" fill="#DF2B23"/>
<path d="M4.54369 11C7.0508 11 9.08738 13.02 9.08738 15.5C9.08738 17.983 7.0508 20 4.54369 20C2.03962 20 0 17.983 0 15.5C0 13.02 2.03962 11 4.54369 11Z" fill="#F3CD7B"/>
</svg>
